/* XPM */
static char * Exit_xpm[] = {
"64 64 590 2",
"  	c None",
". 	c #96BC20",
"+ 	c #90B41F",
"@ 	c #A5C92E",
"# 	c #8CB01F",
"$ 	c #98BE21",
"% 	c #91B51F",
"& 	c #99C021",
"* 	c #89AC1D",
"= 	c #A0C52D",
"- 	c #A8CD2F",
"; 	c #93B723",
"> 	c #98BF21",
", 	c #A4CD2A",
"' 	c #9CC323",
") 	c #A4CC29",
"! 	c #8FB321",
"~ 	c #9BC222",
"{ 	c #91B520",
"] 	c #92B620",
"^ 	c #9CC423",
"/ 	c #98BD25",
"( 	c #A0C827",
"_ 	c #A0C62D",
": 	c #9EC429",
"< 	c #A3CC29",
"[ 	c #96BB24",
"} 	c #9CC325",
"| 	c #A7CE30",
"1 	c #A0C727",
"2 	c #B3DA33",
"3 	c #ABD429",
"4 	c #97BC25",
"5 	c #AAD030",
"6 	c #88AB1D",
"7 	c #A9D229",
"8 	c #A3CC26",
"9 	c #A9D228",
"0 	c #A3C92E",
"a 	c #A7D028",
"b 	c #9DC426",
"c 	c #93B821",
"d 	c #A5CD27",
"e 	c #A5CE2A",
"f 	c #ACD432",
"g 	c #ACD62A",
"h 	c #A8D128",
"i 	c #ABD52A",
"j 	c #A7CB2F",
"k 	c #A9CE30",
"l 	c #AED733",
"m 	c #B6DE35",
"n 	c #B5DD34",
"o 	c #A2CA25",
"p 	c #B0D732",
"q 	c #B7E035",
"r 	c #B0D733",
"s 	c #9AC124",
"t 	c #A6CF27",
"u 	c #A2CA28",
"v 	c #B2DB34",
"w 	c #B9E236",
"x 	c #B4DB34",
"y 	c #A1C925",
"z 	c #A0C824",
"A 	c #ABD529",
"B 	c #A9D329",
"C 	c #AFD934",
"D 	c #B8E136",
"E 	c #A4CD26",
"F 	c #B3DD35",
"G 	c #9DC328",
"H 	c #A8CF42",
"I 	c #EDF7F7",
"J 	c #E6F1F0",
"K 	c #E7F0F3",
"L 	c #F1F9FE",
"M 	c #B1D84C",
"N 	c #9FC727",
"O 	c #A7CF36",
"P 	c #DEF3FC",
"Q 	c #1CD3FF",
"R 	c #24D3FF",
"S 	c #23D3FF",
"T 	c #D6EFFB",
"U 	c #B2D851",
"V 	c #9DC423",
"W 	c #9EDCDB",
"X 	c #2DD3FC",
"Y 	c #8EE0FF",
"Z 	c #D6F1FF",
"` 	c #58D6FE",
" .	c #9ACAEF",
"..	c #AACF55",
"+.	c #A9CD2F",
"@.	c #BAE23B",
"#.	c #BBDC72",
"$.	c #E7EBF2",
"%.	c #70AFE8",
"&.	c #1FC6F8",
"*.	c #C8EBFD",
"=.	c #73B4E6",
"-.	c #BAE23D",
";.	c #9FC724",
">.	c #ADD631",
",.	c #C2E37A",
"'.	c #9DBBE6",
").	c #69A1E2",
"!.	c #1F8DE0",
"~.	c #21A5E9",
"{.	c #23DBFC",
"].	c #1FEFF1",
"^.	c #1FA7E4",
"/.	c #6BA2E0",
"(.	c #BAE23F",
"_.	c #B3D954",
":.	c #A3CB26",
"<.	c #9FC529",
"[.	c #B9DB73",
"}.	c #BBCDEB",
"|.	c #CAD9F3",
"1.	c #85AFE7",
"2.	c #2386E0",
"3.	c #2F95EA",
"4.	c #21EDED",
"5.	c #20D3EF",
"6.	c #2099E4",
"7.	c #76A9E0",
"8.	c #ADC4E8",
"9.	c #B5DA5D",
"0.	c #C6D5EC",
"a.	c #D5E1F5",
"b.	c #0D8BE0",
"c.	c #277EE0",
"d.	c #287AE0",
"e.	c #315DE0",
"f.	c #3450E0",
"g.	c #29C5EB",
"h.	c #1EF7ED",
"i.	c #20C9EE",
"j.	c #7BAAE4",
"k.	c #E5EAF3",
"l.	c #A6CF34",
"m.	c #ADD630",
"n.	c #C3D2EB",
"o.	c #68A2E4",
"p.	c #1C8DE0",
"q.	c #2B74E0",
"r.	c #3354E0",
"s.	c #326BE4",
"t.	c #25D7F3",
"u.	c #1FECEF",
"v.	c #209CE5",
"w.	c #B0D848",
"x.	c #B2D84F",
"y.	c #AED740",
"z.	c #2B72E0",
"A.	c #334FDD",
"B.	c #334EDB",
"C.	c #3090E2",
"D.	c #1EF6EE",
"E.	c #3182E5",
"F.	c #B2D857",
"G.	c #ABD14C",
"H.	c #BCE8F1",
"I.	c #B7DA70",
"J.	c #297AE0",
"K.	c #324DD9",
"L.	c #2F49CC",
"M.	c #2F47C8",
"N.	c #2E47C7",
"O.	c #2D82D6",
"P.	c #1FF0F1",
"Q.	c #29C2F1",
"R.	c #B9DA78",
"S.	c #AFD742",
"T.	c #E9F0E4",
"U.	c #FCFCFC",
"V.	c #86AFE7",
"W.	c #1F94E3",
"X.	c #2C87E7",
"Y.	c #23DAFA",
"Z.	c #2E99EA",
"`.	c #324CD6",
" +	c #2C43BE",
".+	c #2B41B9",
"++	c #2B41B7",
"@+	c #2A44B8",
"#+	c #25B0CE",
"$+	c #25D1F6",
"%+	c #2E6BE0",
"&+	c #8AB3DD",
"*+	c #ACD153",
"=+	c #ACD62D",
"-+	c #A9D041",
";+	c #CDD8EB",
">+	c #5A9BE2",
",+	c #21ADED",
"'+	c #21E3F8",
")+	c #1FF4E7",
"!+	c #308AE2",
"~+	c #2E46C5",
"{+	c #2539A1",
"]+	c #24379C",
"^+	c #21ABBE",
"/+	c #308DE2",
"(+	c #315EE0",
"_+	c #2483E0",
":+	c #7AA8E3",
"<+	c #C0E5F6",
"[+	c #E9F8FF",
"}+	c #BBDC76",
"|+	c #A5C1EB",
"1+	c #2097E4",
"2+	c #21DCF4",
"3+	c #1EF8E9",
"4+	c #3181E1",
"5+	c #3049CE",
"6+	c #2539A0",
"7+	c #25369B",
"8+	c #26369A",
"9+	c #2491C4",
"0+	c #2C78D0",
"a+	c #325AE0",
"b+	c #80A9E6",
"c+	c #CEEEFD",
"d+	c #75DBFF",
"e+	c #AFD73E",
"f+	c #E1E7F2",
"g+	c #21B1EC",
"h+	c #1FF1F1",
"i+	c #2DA8E3",
"j+	c #334EDA",
"k+	c #24379D",
"l+	c #233597",
"m+	c #233698",
"n+	c #213391",
"o+	c #2B2D8C",
"p+	c #322685",
"q+	c #312887",
"r+	c #2A41B7",
"s+	c #3063E0",
"t+	c #7FA9E6",
"u+	c #78DCFF",
"v+	c #AED739",
"w+	c #8BAE1E",
"x+	c #E9EFFA",
"y+	c #22CEF6",
"z+	c #1EF5EE",
"A+	c #2F99E8",
"B+	c #304AD1",
"C+	c #24379B",
"D+	c #273BA7",
"E+	c #213392",
"F+	c #1D2D80",
"G+	c #1A2873",
"H+	c #1F2F87",
"I+	c #283192",
"J+	c #35207E",
"K+	c #2D3EB3",
"L+	c #2979E0",
"M+	c #5098E1",
"N+	c #A1CDF1",
"O+	c #4CD6FF",
"P+	c #A6CE31",
"Q+	c #C7D4EB",
"R+	c #21D3F3",
"S+	c #28CAE8",
"T+	c #334DDC",
"U+	c #20318D",
"V+	c #1C2C7E",
"W+	c #182468",
"X+	c #162261",
"Y+	c #1A2975",
"Z+	c #213492",
"`+	c #293FB2",
" @	c #344FE0",
".@	c #21AEED",
"+@	c #14D3FF",
"@@	c #BADA76",
"#@	c #BCD0F0",
"$@	c #21ABEC",
"%@	c #20E7EB",
"&@	c #317FE8",
"*@	c #324DD8",
"=@	c #2B42B9",
"-@	c #20328D",
";@	c #2387E0",
">@	c #6FA4E9",
",@	c #C1B0D8",
"'@	c #B6DE47",
")@	c #B0D845",
"!@	c #E7EEF8",
"~@	c #1FD9EB",
"{@	c #21EEE8",
"]@	c #304ACF",
"^@	c #3038A9",
"/@	c #312786",
"(@	c #2E247D",
"_@	c #26216E",
":@	c #172466",
"<@	c #1C2C7D",
"[@	c #233699",
"}@	c #2B42BB",
"|@	c #238BE1",
"1@	c #22B6F1",
"2@	c #8776D8",
"3@	c #A6CE33",
"4@	c #B2D850",
"5@	c #DEE6F0",
"6@	c #44E3EA",
"7@	c #27D2E5",
"8@	c #2F48CA",
"9@	c #371977",
"0@	c #2B2B89",
"a@	c #1D2D7F",
"b@	c #161D56",
"c@	c #1C2B7B",
"d@	c #249AE7",
"e@	c #8676D8",
"f@	c #A5CE2D",
"g@	c #B9DB6C",
"h@	c #A87ED4",
"i@	c #66B6EA",
"j@	c #3180E6",
"k@	c #2D44C0",
"l@	c #351F7D",
"m@	c #222F89",
"n@	c #151749",
"o@	c #151340",
"p@	c #21328E",
"q@	c #20318C",
"r@	c #8675D8",
"s@	c #A0C536",
"t@	c #E4E1E9",
"u@	c #8788D3",
"v@	c #1EC6E3",
"w@	c #3061E0",
"x@	c #314BD3",
"y@	c #2C43BD",
"z@	c #161B52",
"A@	c #150A2E",
"B@	c #150E35",
"C@	c #161E58",
"D@	c #1D2E82",
"E@	c #1E2F86",
"F@	c #66AEED",
"G@	c #B597D9",
"H@	c #AED736",
"I@	c #C6B6DC",
"J@	c #5CBBEF",
"K@	c #20B8E9",
"L@	c #161F5B",
"M@	c #15103A",
"N@	c #263AA5",
"O@	c #324DD7",
"P@	c #E3DDEA",
"Q@	c #AED73B",
"R@	c #BFADD6",
"S@	c #45BCF3",
"T@	c #1F90E1",
"U@	c #16215F",
"V@	c #233596",
"W@	c #26C4F9",
"X@	c #F0EBF7",
"Y@	c #C3B2DA",
"Z@	c #8861D2",
"`@	c #1E2E83",
" #	c #21328F",
".#	c #1D2C7E",
"+#	c #1B2A77",
"@#	c #1E2E84",
"##	c #2539A2",
"$#	c #27C7FB",
"%#	c #E8E3EF",
"&#	c #C5B3DC",
"*#	c #53BDF3",
"=#	c #2C8FE0",
"-#	c #293FB3",
";#	c #20328E",
">#	c #1A2872",
",#	c #162262",
"'#	c #233598",
")#	c #E6E0ED",
"!#	c #B0D745",
"~#	c #BFACD8",
"{#	c #D6F3FF",
"]#	c #ACC6ED",
"^#	c #242A7E",
"/#	c #332F97",
"(#	c #263AA3",
"_#	c #3BBFF7",
":#	c #7C91E1",
"<#	c #B1D849",
"[#	c #C5B3DD",
"}#	c #53D2FC",
"|#	c #73A7E5",
"1#	c #1C2B7C",
"2#	c #172467",
"3#	c #212D83",
"4#	c #293294",
"5#	c #2F92EC",
"6#	c #4ED1EB",
"7#	c #B697DC",
"8#	c #EFEDF2",
"9#	c #B1D84A",
"0#	c #A7E3F9",
"a#	c #23C8FA",
"b#	c #2287E0",
"c#	c #324ED9",
"d#	c #222B7F",
"e#	c #212B7F",
"f#	c #2F227B",
"g#	c #25389F",
"h#	c #2B41B8",
"i#	c #3368E1",
"j#	c #26DAE5",
"k#	c #1CE8E9",
"l#	c #4B97E1",
"m#	c #E4E9F2",
"n#	c #BDE353",
"o#	c #A1DFF5",
"p#	c #5FD3FB",
"q#	c #82ADE4",
"r#	c #3181E8",
"s#	c #317BE7",
"t#	c #293FB1",
"u#	c #2C2A87",
"v#	c #341E79",
"w#	c #232B7F",
"x#	c #272E8A",
"y#	c #26359A",
"z#	c #273CAA",
"A#	c #1DDEE5",
"B#	c #20AAE9",
"C#	c #A2BDE7",
"D#	c #B2D951",
"E#	c #DEEBE6",
"F#	c #78DBFF",
"G#	c #BFD2F0",
"H#	c #438EE1",
"I#	c #2E97ED",
"J#	c #24DBF2",
"K#	c #26D4E4",
"L#	c #3049CD",
"M#	c #2A3FB2",
"N#	c #2A349A",
"O#	c #212E86",
"P#	c #223494",
"Q#	c #263BA6",
"R#	c #3249D8",
"S#	c #21EAE6",
"T#	c #1EBCE3",
"U#	c #4294E1",
"V#	c #BED2EA",
"W#	c #A0C633",
"X#	c #76DAFB",
"Y#	c #82ACDD",
"Z#	c #498CE6",
"`#	c #42C8F9",
" $	c #22E9E6",
".$	c #2D45C2",
"+$	c #273CA9",
"@$	c #213390",
"#$	c #223596",
"$$	c #2A40B6",
"%$	c #2C43BC",
"&$	c #2CA1DC",
"*$	c #1DE1E5",
"=$	c #83AFDD",
"-$	c #B2D84E",
";$	c #73D8F7",
">$	c #7DABDE",
",$	c #657AD9",
"'$	c #8B74D7",
")$	c #1AFBE8",
"!$	c #2EA0E2",
"~$	c #2B43BC",
"{$	c #263AA4",
"]$	c #2F48CB",
"^$	c #26CDF5",
"/$	c #2B92E1",
"($	c #7FADDD",
"_$	c #7DDCF6",
":$	c #82AEE3",
"<$	c #2680E0",
"[$	c #7E5BD5",
"}$	c #52E4E2",
"|$	c #2CB0E3",
"1$	c #334EDC",
"2$	c #2E46C4",
"3$	c #20328F",
"4$	c #2F47C9",
"5$	c #2F62DC",
"6$	c #B9DE62",
"7$	c #CBE9E3",
"8$	c #7EABE4",
"9$	c #586ADC",
"0$	c #878ED4",
"a$	c #26D2EF",
"b$	c #326DE4",
"c$	c #2D45C4",
"d$	c #A4C1EC",
"e$	c #ACD152",
"f$	c #ADD636",
"g$	c #E3E9F5",
"h$	c #619EE2",
"i$	c #2189E0",
"j$	c #8968D2",
"k$	c #5DD5E2",
"l$	c #2EA6E3",
"m$	c #344FDE",
"n$	c #283EAF",
"o$	c #2C71E0",
"p$	c #208CE0",
"q$	c #CAD9F1",
"r$	c #AFD25C",
"s$	c #ACD62E",
"t$	c #B7DA66",
"u$	c #C0D0EA",
"v$	c #3D88DE",
"w$	c #4EC9E8",
"x$	c #21ECEB",
"y$	c #3084E9",
"z$	c #2484E0",
"A$	c #6FA4E5",
"B$	c #DAE1EF",
"C$	c #B9DB6E",
"D$	c #B7DF35",
"E$	c #8AB1E3",
"F$	c #208DE0",
"G$	c #25BCF4",
"H$	c #23E0F9",
"I$	c #22E5F2",
"J$	c #317CE7",
"K$	c #208BE0",
"L$	c #148CE0",
"M$	c #E4E8EF",
"N$	c #F9F9F9",
"O$	c #FAFAFA",
"P$	c #CBE8EF",
"Q$	c #CAD8EF",
"R$	c #64A0E4",
"S$	c #ECF1FA",
"T$	c #B6D2F2",
"U$	c #21D0F2",
"V$	c #21C2EF",
"W$	c #21A7EA",
"X$	c #94B5E5",
"Y$	c #D3EAF6",
"Z$	c #F8F8F8",
"`$	c #E8F4F4",
" %	c #ACE1DD",
".%	c #B2D950",
"+%	c #ACC4E1",
"@%	c #8CB3E8",
"#%	c #9EBDEB",
"$%	c #23CDFC",
"%%	c #20A1E8",
"&%	c #C6D6EF",
"*%	c #AADCF6",
"=%	c #6EDAFF",
"-%	c #D6EAEF",
";%	c #ACD054",
">%	c #B8DB65",
",%	c #BBCFEE",
"'%	c #75A6E4",
")%	c #929EE1",
"!%	c #9D63D1",
"~%	c #43C8F9",
"{%	c #22D3FF",
"]%	c #2FCDFC",
"^%	c #49C3F7",
"/%	c #ACE0F1",
"(%	c #ACD52A",
"_%	c #9FC430",
":%	c #B2D852",
"<%	c #C3E277",
"[%	c #E3DBF0",
"}%	c #8E6BD5",
"|%	c #7898E4",
"1%	c #8483DC",
"2%	c #C4B8D5",
"3%	c #ADD633",
"4%	c #BEE458",
"5%	c #E6E2EA",
"6%	c #E1DEE6",
"7%	c #E6E3EA",
"8%	c #E0E0E0",
"9%	c #B3D857",
". + . . + . . @ . . # + $ % % & . * . + . . . . = . . . . . . + . + % & + & % - . . ; % > % + % & * % % > > % % , % & % ' > > + ",
". . + + . + . . = . @ . % & % > + . . + . * . . + @ . @ . + + . . . + + % % % > = . @ % > > & % % > > % % # > > % - % ) % % % % ",
"+ + + . . + . + . . . * > % > - . . ! . . ; ~ & + > . . + . . { + + ] ^ $ + ^ % . / ( * > + % @ . . % & % % > % % > % > + $ > % ",
"+ . . = . . + . * . + * % % % _ . + - : . ~ < ^ > % ; . [ } | $ + $ 1 2 ( & . 3 . ^ ^ 4 ^ & ^ @ . # 5 & > > % > % ~ % > 6 $ 7 % ",
". @ = . . + . . $ & + $ ^ > % > . . 8 9 0 5 a b & # $ c d b e f ' f f g h ( ( h 9 , b i ^ i ( b + & 8 h 0 @ > % % * + + $ % = j ",
". @ . . . + . @ k 9 & & 2 > > > ( ; 9 e ( l d m ^ . ( ^ / 9 ( f h n i i h b o p q 9 a i n i 3 a & c i b . 0 % @ > * + > 6 % % = ",
". . . + 6 . + . @ r a @ 9 / % ^ < s < i t 8 2 u ( ( 3 8 u 9 9 u g g g , b h ( t v q 9 w i b e i s 4 < ( ^ t 0 + % > > > + & & + ",
". 6 . . 6 + ' + & f u x u } y z g i < d i t i i g b t h i , , g A _ g g : , i d i m , w , : g e B i , s d h & ^ ^ + % ' % % % % ",
"+ > % % + $ & } $ u , i 9 ) ( } g e g g : , i 8 i C a 9 D g g e d g , g , i g , , , , g g e e : g , i 3 : . $ ( E ) % & j > % % ",
"% % & + = j $ , i , g g i i , , g g g e _ g 3 3 9 i D , e g g g g , g a F w g g g a g g g g e e g g g , G . d h ^ . @ + + % > > ",
"% # % & % @ 7 u q g g , g , g g g w g g g , g , i 9 7 g g e e g , 1 , g g m w g w g g a g e g g g w g i 9 : g b ' . . $ > + + % ",
"+ * % & % ' 0 - , 9 , g g g , g g g w g g g g , g H I J K L K M , _ g g g g m w g g , g g g e g g g w i t ( t N z } d / * + > ~ ",
"% % + % % ( ' ( a e g g m g g w e g F g w e e g O P Q R R R S T U , , g , g , g g , g g F g g w , g n i x b , g , } % V % % > > ",
"> % > > + & ( b i g g g g w , m e g g e g g g F g W X R R Y Z `  ...g g , g , 1 g g g g g w e F , g g 8 t i i l g y % % > +.% % ",
"% & e $ % - & : e g g e g g i g g e g e g e g g F @.#.$.%.&.*.S R =.-.g g w g _ a g g e g g g g i a g , i < h ( @ @ % ~ @ u > > ",
"% % $ @ ;.m , g g F g g g a g , e g g g e : g g >.,.'.).!.!.~.{.].^./.(._.@.g g g F g g g e g e , g g g a b A 3 +.e - % _ > % % ",
"& + . . :.9 g , g g w g g g a e g g <.g g <.g e [.}.|.1.!.!.2.3.4.5.6.7.8.9.g e g g w g g g e e g g : g g : g < , s | . + % * % ",
"% + . . $ ; u g g g F g w g g : e g g g g e g g 0.a.b.!.c.d.e.f.g.h.i.!.j.k.l.g g g F g w g g <.a g g g g e g i 9 g & & . ; > > ",
"& $ . @ . d 9 u 9 g g e g g e : g g w g g g g m.n.o.p.q.r.f.f.f.s.t.u.v.!.n.w.e g g g e g g e <.g g w g g g g g < i b & ^ & % # ",
"> e = $ $ . i _ i , g g e g g g g e F w >.x.w y.!.!.z.f.f.f.f.A.B.C.D.E.!.!.F.<.g e g g e g g g g e F w g g D g i , : , ( e % > ",
"- @ % ' b b y } i G , g g g g e g e g F G.H.e I.!.J.f.f.f.K.L.M.N.O.P.Q.!.!.R.<.g <.e g g g g e g e g F e w e g , i 1 h ^ > - % ",
"_ % > & ( 3 9 u g g g e g w g g g g e e S.T.U.V.W.X.Y.Z.`. +.+++++@+#+$+%+!.&+*+U =+g e g w g g g g e e g g g e g d d % + % u > ",
"% % > % ^ , m 9 g e g g g F w g g w g g g -+;+>+,+'+)+!+~+++{+]+]+]+^+/+(+_+:+<+[+-+g g g F w g g w g g g e g g s b 3 ^ # > $ ; ",
"% > y d b a v g w g e g g g F e w e g e g }+|+1+2+3+4+5+++6+]+]+7+8+9+0+f.a+b+c+d+e+e g g g F e w e g e g g g i 9 g g y % % % % ",
"% # > $ < 9 i , a g g _ e g g g g g g g g f+!.g+h+i+j+k+l+m+n+n+o+p+q+r+f.s+t+U.u+v+g : a g g g A A g g g w i d i i r & . % + $ ",
"> > + w+d i , g g , g g g e g g e <.e g >.x+!.y+z+A+B+C+D+E+F+G+H+I+J+K+f.L+M+N+O+P+g g g e g g , _ a g g g F w 9 m e b s ; # % ",
"> % % > ~ 9 g i , g w g g g g g e g g g O Q+!.R+S+T+U+l+l+V+W+X+Y+l+Z+`+f. @2..@+@@@w g g g g g a g g g , , g n i C u u h > % % ",
"% % @ y ( m i w g , F w g g w g g g g e e+#@$@%@&@*@=@{+-@Y+X+X+Y+-@E+`+f.f.;@.@>@,@'@w g g w g g g g , A _ g g i < , i ^ % > > ",
"> - . , h 2 q i g a g m i w e e g w g g )@!@~@{@f.]@^@/@(@_@X+X+:@<@[@}@]@f.|@1@2@3@g F g w e a g w g g g g g g , g } ( % ) % % ",
"@ u . s . ( C , , , g g a i g : g g F w 4@5@6@7@f.8@9@0@a@X+X+b@X+c@n+=@8@f.d@R e@f@g g e g g : g g m w g g w g g i G s y V e $ ",
"= . + & ^ d u g g : g g g g e g e g g F g@h@i@j@`.k@l@m@c@X+n@o@X+F+p@q@8@f.d@S r@s@g g g g a i a g i F g w g g _ , i h ^ & = $ ",
". . $ $ t < < g a g g w g e e g e g e g t@u@v@w@x@y@D+q@c@z@A@B@C@D@]+E@8@f.d@F@G@H@g w g e , g , g , i , g , , g g , 9 :.; ; . ",
"> % . s & t i w g g e e g g e g g <.g e I@J@K@w@x@y@E@q@c@L@M@o@X+D@]+N@O@f.d@F@P@Q@e e g g e g g <.g e g g g g F g 9 < & $ % % ",
"% % ; . ( ( 3 g F g w g g g g g e g g e R@S@T@w@`.k@E@q@c@X+U@U@X+a@V@r+f.f.W@F@X@e+w g g g g g e g g e g : g g e w i v b + + & ",
"% % . g h ( g , g g g <.g e g w g g e g Y@Z@!.w@f.8@`@ #.#X+X+X+X++#@###f.f.$#F@%#S.g <.g e g w g g e g g a g g e g g g _ . % % ",
"+ > % 5 i g ( g <.g e <.g e g F g e w e &#*#=#w@f.8@-#[@;#>#X+X+,#c@'#`+f.f.$#F@)#!#e <.g e g F g e w e i i a g g i u a + $ e & ",
"% e = & ;.( i i g g e g g g g g e g g g ~#{#]#w@f.f.y@C+F+Y+X+X+Y+^#/#(#f.f._#:#X@<#e g g g g g e g g g F w g , 9 G d ( ' + = j ",
"> - ^ t i : i w w g g g w g g g g <.g e [#}#|#w@f.f.]@C+F+1#2#Y+1#3#4#r+f.5#6#7#8#9#g g w g g g g <.g e g F i q 9 } } ^ 6 % % _ ",
"& % ^ , : i < i F w g w g <.e g e <.e g 0#a#!.b#f.f.c#C+d#e#F+F+f#p+g#h#i#j#k#l#m#n#g w g <.e g e <.e g g g F 0 u 9 E > % > > + ",
"> w+% ' s ( d 0 g F e w a : g e g g e e o#p#q#;@r#s#c#t#u#v#w#F+x#y#z#]@i+A#B#C#D#F e w e <.g e g g e e g g g g 9 u A y % % % % ",
"+ % + & & 9 ( 1 < , e g g e e : g e g g E#F#G#H#I#J#K#L#M#N#O#D@P#Q#r+R#S#T#U#V#e e e g g e e <.g e g g : e g , i F ( & e . . { ",
"> % ' % f w h d i < g g g g e e g g g e W#X#H@Y#Z#`# $f..$+$P#@$#$$$%$&$*$!.=$-$g e g g g g e e g g g e : g g g i i q 8 [ $ . . ",
"% * ( d N 5 x i q i i a g e g g g w g g g ;$g >$,$'$)$!$~$C+h#]+q@{$]$^$/$!.($g w g g e g e g g g w g g g a g a i g t ( ' + + . ",
"+ * & h i 9 2 x i g < g g g e g g g w g g _$g :$<$[$}$|$1$2$y@ #3$=@4$5$!.!.6$w g g e g g g e g g g w g g g g , i : d < ; { . . ",
"> % + > ^ i < g a 0 i g F g g w e g F g w 7$e 8$!.9$0$a$b$x@y@q@c$`.f._+!.d$e$g g e g g F g g w e g F g w a , i , b , h b % > > ",
"> % % ' . , < : g g i g g w e F e g g e g g f$g$h$i$j$k$l$m$]$n$m$(+o$p$!.q$r$<.g g g g g w e F e g g e g g g m g g ( y $ @ % + ",
"% > - % & f i : e g g e g g g g g e g e g e s$t$u$!.v$w$x$y$f.f.f.z$!.!.A$B$C$<.e g g e g g g g g e g e g , g g v D$d ^ @ ) > > ",
"+ > % - ^ 2 g g g F g g g e g e e g g g e <.g g g E$F$G$H$I$J$w@z$K$!.L$M$N$O$P$g F g g g e g e e g g g , : g g g f r ^ = > % + ",
"% + % % } d 9 , g g w i i g , , g g : g g : g e g Q$R$S$T$U$V$W$!.!.!.X$Y$Z$`$ %g g w g g g e a g g <.g g 1 g , h . 0 % % % # % ",
"~ + > > $ * b i g g m g w g g _ e g g g g e g g g .%+%@%#%,+R $%%%o.&%*%=%-%;%g g g F g w g g : e g g g g , d d d } ^ % > + > > ",
"> % > ) . $ ' ( g g g , g g , 1 g g w g g g g g e g >%,%'%)%!%~%R {%]%^%/%g A , g g g e g g a : g g D i i i t & . ( y % & % > * ",
"% j @ % . . 9 } g ) (%g , g g g g e F w g g w g g e _%e$:%<%[%}%|%|%1%2%>.a A _ g e g g e g g g g u 3%v h h r ( b + * + % u > % ",
"7 @ > % % % ^ ; & * $ i g g g , g e g F , w , g e g : g g 3%4%5%6%7%8%9%, , g : g : , g g g g , 9 : N 5 b 2 . . % > * > & % - > ",
"= . > % > V $ $ b , 9 , g w g (%g g e e g g g , g e g , , g m g F g g g g i g , i i g , i w g g 9 8 . < 9 a d % > % % % % > @ % ",
". + % + % > ) > $ % & u g v n d 9 w g g g a g i : , i i _ g g a i , g , i i w i i < g g g F q i 8 2 & ^ 9 < t ^ # # % > * > > + ",
"; % > > % > = % - ^ $ & h i f $ m u g , g g g 9 i 9 i i A , g g , i i i , i F i w g , g i i l 8 5 4 . ; b y ( > % > > > % % > % ",
"% * % * % > > % + % ~ + b y % ^ :.(%(%9 g w i u i h n h g g , g g b 9 _ , 3 3 d u i i : < B t 3 $ ' $ $ $ @ . + > > e $ . . { . ",
"& & % * > % + > > % % ^ ' % % > . } ) , g h 3%w 8 n l d 9 ( } g g 9 b b d d N 8 8 , i d t b t ;.+ * + . . . = @ % , @ % . { 6 . ",
"> + % & % > > % + > - % % $ > > . ^ ( 9 u $ } x ;.5 $ b i 1 E :.9 1 b ^ ' , N ~ & t 2 ^ ~ ^ d ^ + % . . + + . = > ) + + . . . + ",
"> % ) > % - % - % % _ @ & $ 9 % % $ & b $ * ' :.N % % ( t + y +.( ^ @ % % e > @ % ; 0 - . & - % % $ . + . 6 . . % % + $ . + . . ",
"> @ + % % 0 e % % + $ ) % - + + % 7 $ ' % > > > % > # ^ ' j ' . $ e % % > @ - % . + . = % - % % & - > % . . . . + . 6 . . @ . + ",
"- _ % > + > = ; % + $ % % & % * > > = j ~ % , > % > * + . . @ $ | u > > + % ) % + + . . % > % # > % u - . . @ . . . 6 + . . @ . ",
") > % > % & % % & * > > % > % % + % % @ % 7 % > * % % > + . = . = . % > > % ; % . * . $ > > + % % % $ = . @ . . 6 + . . + . = . ",
"% % > % & % % & % % % - > % % & + > % % ; $ + + > > % % ] { { . . . % + > + + > + . . 7 % + + > % % ; . + . + + . . + . . + + . "};
