/* XPM */
static char *d3049d8e5c4c4a969f6c0aa7a52aac9efxEPgz5quQCeAzSl[] = {
/* columns rows colors chars-per-pixel */
"64 64 198 2 ",
"   c #88AB1D",
".  c #88AC1D",
"X  c #89AC1D",
"o  c #89AC1E",
"O  c #8AAD1E",
"+  c #8AAE1E",
"@  c #8BAE1E",
"#  c #8CB01F",
"$  c #90B41F",
"%  c #90B51F",
"&  c #91B51F",
"*  c #8EB120",
"=  c #8EB220",
"-  c #8FB321",
";  c #91B520",
":  c #91B620",
">  c #92B620",
",  c #92B720",
"<  c #93B720",
"1  c #91B522",
"2  c #91B622",
"3  c #92B622",
"4  c #92B722",
"5  c #93B723",
"6  c #93B821",
"7  c #93B823",
"8  c #94B921",
"9  c #95BA22",
"0  c #95BB22",
"q  c #96BB22",
"w  c #96BC20",
"e  c #96BD20",
"r  c #97BD20",
"t  c #97BD21",
"y  c #97BE21",
"u  c #96BC22",
"i  c #97BD23",
"p  c #96BB24",
"a  c #97BC25",
"s  c #98BE21",
"d  c #98BF21",
"f  c #99BF21",
"g  c #98BD23",
"h  c #98BE23",
"j  c #98BF23",
"k  c #98BD25",
"l  c #99BF24",
"z  c #98BE26",
"x  c #99BE26",
"c  c #9ABF26",
"v  c #99C021",
"b  c #99C022",
"n  c #9AC022",
"m  c #9AC122",
"M  c #9BC122",
"N  c #9BC222",
"B  c #9CC323",
"V  c #9CC423",
"C  c #9DC423",
"Z  c #9DC523",
"A  c #9EC523",
"S  c #99C024",
"D  c #9AC024",
"F  c #9AC124",
"G  c #9BC125",
"H  c #9BC225",
"J  c #9AC027",
"K  c #9BC127",
"L  c #9CC325",
"P  c #9CC227",
"I  c #9EC524",
"U  c #9EC624",
"Y  c #9FC624",
"T  c #9FC724",
"R  c #9DC426",
"E  c #9DC526",
"W  c #9EC626",
"Q  c #9EC627",
"!  c #9FC627",
"~  c #9FC727",
"^  c #9CC228",
"/  c #9DC328",
"(  c #9EC328",
")  c #9EC428",
"_  c #9EC429",
"`  c #9FC429",
"'  c #9FC529",
"]  c #A0C727",
"[  c #A0C824",
"{  c #A0C825",
"}  c #A1C825",
"|  c #A1C925",
" . c #A1CA25",
".. c #A2CA25",
"X. c #A0C827",
"o. c #A2CA26",
"O. c #A2CB26",
"+. c #A3CB26",
"@. c #A3CC26",
"#. c #A4CC26",
"$. c #A4CD26",
"%. c #A4CD27",
"&. c #A5CD27",
"*. c #A5CE27",
"=. c #A6CE27",
"-. c #A6CF27",
";. c #A0C52D",
":. c #A0C62D",
">. c #A1C72E",
",. c #A0C828",
"<. c #A1C828",
"1. c #A1C928",
"2. c #A1CA28",
"3. c #A2CA28",
"4. c #A2CB29",
"5. c #A3CB29",
"6. c #A3CC29",
"7. c #A4CC29",
"8. c #A4CD29",
"9. c #A4CD2A",
"0. c #A5CD2A",
"q. c #A5CE2A",
"w. c #A2C82E",
"e. c #A3C82E",
"r. c #A3C92E",
"t. c #A4C92E",
"y. c #A5C92E",
"u. c #A5CA2E",
"i. c #A4CA2F",
"p. c #A6CA2E",
"a. c #A6CB2F",
"s. c #A7CB2F",
"d. c #A5CC2F",
"f. c #A7CC2F",
"g. c #A8CC2F",
"h. c #A8CD2F",
"j. c #A9CD2F",
"k. c #A9CE2F",
"l. c #A7D028",
"z. c #A7D128",
"x. c #A8D128",
"c. c #A8D228",
"v. c #A9D228",
"b. c #A9D229",
"n. c #A9D329",
"m. c #AAD329",
"M. c #AAD429",
"N. c #ABD429",
"B. c #ABD529",
"V. c #ABD52A",
"C. c #ACD52A",
"Z. c #ACD62A",
"A. c #A7CE30",
"S. c #A9CE30",
"D. c #A8CF30",
"F. c #AACF30",
"G. c #A9D031",
"H. c #AAD030",
"J. c #ABD130",
"K. c #AAD231",
"L. c #ACD432",
"P. c #ADD532",
"I. c #AED432",
"U. c #AFD532",
"Y. c #ADD633",
"T. c #AFD632",
"R. c #AED633",
"E. c #AED733",
"W. c #AFD733",
"Q. c #AFD934",
"!. c #B0D632",
"~. c #B0D732",
"^. c #B0D733",
"/. c #B1D833",
"(. c #B2D933",
"). c #B2DA33",
"_. c #B3DA33",
"`. c #B0D934",
"'. c #B0DA34",
"]. c #B1DA34",
"[. c #B1DB34",
"{. c #B3DA34",
"}. c #B2DB34",
"|. c #B3DB34",
" X c #B4DB34",
".X c #B2DC35",
"XX c #B3DC35",
"oX c #B3DD35",
"OX c #B4DC34",
"+X c #B5DD34",
"@X c #B6DE35",
"#X c #B6DF35",
"$X c #B7DF35",
"%X c #B7E035",
"&X c #B8E035",
"*X c #B8E136",
"=X c #B9E136",
"-X c #B9E236",
/* pixels */
"w $ w w $ w w y.w w # $ s & & v w X w $ w w w w ;.w w w w w w $ w $ & v $ v & h.w w 5 & d & $ & v X & & d d & & 9.& v & B d d $ ",
"w w $ $ w $ w w ;.w y.w & v & d $ w w $ w X w w $ y.w y.w $ $ w w w $ $ & & & d ;.w y.& d d v & & d d & & # d d & h.& 7.& & & & ",
"$ $ $ w w $ w $ w w w X d & d h.w w - w w 5 N v $ d w w $ w w ; $ $ > V s $ V & w k X.X d $ & y.w w & v & & d & & d & d $ s d & ",
"$ w w ;.w w $ w X w $ X & & & :.w $ h._ w N 6.V d & 5 w p L A.s $ s ] _.X.v w N.w V V a V v V y.w # H.v d d & d & N & d   s b.& ",
"w y.;.w w $ w w s v $ s V d & d w w @.v.r.H.l.R v # s 6 &.R q.L.B L.L.Z.x.X.X.x.v.9.R V.V V.X.R $ v @.x.r.y.d & & X $ $ s & ;.s.",
"w y.w w w $ w y.S.v.v v _.d d d X.5 v.q.X.E.&.@XV w X.V k v.X.L.x.+XV.V.x.R ..~.%Xv.l.V.+XV.N.l.v 6 V.R w r.& y.d X $ d   & & ;.",
"w w w $   w $ w y.^.l.y.v.k & V 6.F 6.V.-.@._.3.X.X.N.@.3.v.v.3.Z.Z.Z.9.R x.X.-.}.%Xv.-XV.R q.V.F a 6.X.V -.r.$ & d d d $ v v $ ",
"w   w w   $ B $ v L.3. X3.L | [ Z.V.6.&.V.-.V.V.Z.R -.x.V.9.9.Z.B.:.Z.Z._ 9.V.&.V.@X9.-X9._ Z.q.n.V.9.F &.x.v V V $ & B & & & & ",
"$ d & & $ s v L s 3.9.V.v.7.X.L Z.q.Z.Z._ 9.V.@.V.Q.l.v.*XZ.Z.q.&.Z.9.Z.9.V.Z.9.9.9.9.Z.Z.q.q._ Z.9.V.N._ w s X.$.7.& v s.d & & ",
"& & v $ ;.s.s 9.V.9.Z.Z.V.V.9.9.Z.Z.Z.q.:.Z.N.N.v.V.*X9.q.Z.Z.Z.Z.9.Z.l.oX-XZ.Z.Z.l.Z.Z.Z.Z.q.q.Z.Z.Z.9./ w &.x.V w y.$ $ & d d ",
"& # & v & y.b.3.%XZ.Z.9.Z.9.Z.Z.Z.-XZ.Z.Z.9.Z.9.V.v.b.Z.Z.q.q.Z.9.] 9.Z.Z.@X-XZ.-XZ.Z.l.Z.q.Z.Z.Z.-XZ.V.v._ Z.R B w w s d $ $ & ",
"$ X & v & B r.h.9.v.9.Z.Z.Z.9.Z.Z.Z.-XZ.Z.Z.Z.9.Z.9.Z.q.' q.Z.Z.9.:.Z.Z.Z.Z.@X-XZ.Z.9.Z.Z.Z.q.Z.Z.Z.-XV.-.X.-.~ [ L &.k X $ d N ",
"& & $ & & X.B X.l.q.Z.Z.@XZ.Z.-Xq.Z.oXZ.-Xq.q.Z.q._ q.Z.Z.Z.Z.Z.Z.9.9.Z.9.Z.9.Z.Z.9.Z.Z.oXZ.Z.-X9.Z.+XV. XR 9.Z.9.L & C & & d d ",
"d & d d $ v X.R V.Z.Z.Z.Z.-X9.@Xq.Z.Z.q.Z.Z.Z.oXZ.Z.q.Z.Z.-XZ.q.Z.9.Z.Z.9.Z.9.] Z.Z.Z.Z.Z.-Xq.oX9.Z.Z.@.-.V.V.E.Z.| & & d j.& & ",
"& v q.s & h.v _ q.Z.Z.q.Z.Z.V.Z.Z.q.Z.q.Z.q.Z.Z.oX-XZ.Z.-XoXZ.Z.Z.Z.-XZ.Z.-XZ.:.l.Z.Z.q.Z.Z.Z.Z.V.l.Z.9.V.6.x.X.y.y.& N y.3.d d ",
"& & s y.T @X9.Z.Z.oXZ.Z.Z.l.Z.9.q.Z.Z.Z.q._ Z.Z.Z.oX-XZ.oXZ.Z.q.v.Z.Z.-XZ.-XZ.Z.Z.oXZ.Z.Z.q.Z.q.9.Z.Z.Z.l.R B.N.j.q.h.& :.d & & ",
"v $ w w +.v.Z.9.Z.Z.-XZ.Z.Z.l.q.Z.Z.' Z.Z.' Z.q.Z.q.oXZ.q.Z.' Z.Z.q.Z.q.Z.Z.Z.q.Z.Z.-XZ.Z.Z.q.q.Z.Z._ Z.Z._ Z.6.9.F A.w $ & X & ",
"& $ w w s 5 3.Z.Z.Z.oXZ.-XZ.Z._ q.Z.Z.Z.Z.q.Z.Z.Z.Z.Z.Z.Z.q.Z.Z.Z.q.Z.Z.Z.' q.Z.Z.Z.oXZ.-XZ.Z.' l.Z.Z.Z.Z.q.Z.V.v.Z.v v w 5 d d ",
"v s w y.w &.v.3.v.Z.Z.q.Z.Z.q._ Z.Z.-XZ.Z.Z.Z.Z.q.Z.Z.q.Z.Z.Z.' Z.Z.Z.-XZ.Z.Z.q.Z.Z.Z.q.Z.Z.q.' Z.Z.-XZ.Z.Z.Z.Z.6.V.R v V v & # ",
"d q.;.s s w V.:.V.9.Z.Z.q.Z.Z.Z.Z.q.oX-XZ.Z.-XZ.Z.q.' q.Z.oXZ.Z.Z.-XoXZ.Z.q.Z.' Z.q.Z.Z.q.Z.Z.Z.Z.q.oX-XZ.Z.*XZ.V.9._ 9.X.q.& d ",
"h.y.& B R R | L V./ 9.Z.Z.Z.Z.q.Z.q.Z.oXq.-Xq.Z.q.Z.' Z.Z.Z.-XZ.-XoXZ.Z.q.q.Z.' Z.' q.Z.Z.Z.Z.q.Z.q.Z.oXq.-Xq.Z.9.V.] x.V d h.& ",
":.& d v X.N.v.3.Z.Z.Z.q.Z.-XZ.Z.Z.Z.q.q.Z.Z.Z.q.Z.q.Z.q.q.Z.oXZ.oXZ.Z.Z.Z.Z.Z.q.Z.Z.Z.q.Z.-XZ.Z.Z.Z.q.q.Z.Z.Z.q.Z.&.&.& $ & 3.d ",
"& & d & V 9.@Xv.Z.q.Z.Z.Z.oX-XZ.Z.-XZ.Z.Z.q.Z.Z.' q.Z.Z.' Z.Z.q.Z.q.Z.q.Z.Z.-XZ.Z.q.Z.Z.Z.oX-XZ.Z.-XZ.Z.Z.q.Z.Z.F R N.V # d s 5 ",
"& d | &.R l.}.Z.-XZ.q.Z.Z.Z.oXq.-Xq.Z.q.Z.Z.Z.Z.Z.Z.Z.Z.Z.q.Z.Z.q.Z.Z.Z.q.Z.oXZ.-XZ.q.Z.Z.Z.oXq.-Xq.Z.q.Z.Z.Z.V.v.Z.Z.| & & & & ",
"& # d s 6.v.V.9.l.Z.Z.:.q.Z.Z.Z.Z.Z.Z.Z.Z.-XZ.q.Z.Z.-XZ.Z.Z.q.Z.Z.' Z.' q.Z.Z.q.q.Z.Z._ l.Z.Z.Z.B.B.Z.Z.Z.-XV.&.V.V.^.v w & $ s ",
"d d $ @ &.V.9.Z.Z.9.Z.Z.Z.q.Z.Z.q.' q.Z.Z.Z.oX-XZ.-XoXZ.Z.q.' Z.Z.Z.q.' Z.Z.q.Z.Z.q.Z.Z.Z.q.Z.Z.9.:.l.Z.Z.Z.oX-Xv.@Xq.R F 5 # & ",
"d & & d N v.Z.V.9.Z.-XZ.Z.Z.Z.Z.q.Z.Z.Z.q.q.Z.oXZ.oXq.q.Z.Z.Z.q.Z.q.Z.Z.Z.Z.Z.Z.q.Z.-XZ.Z.Z.Z.Z.l.Z.Z.Z.9.9.Z.+XV.Q.3.3.x.d & & ",
"& & y.| X.@XV.-XZ.9.oX-XZ.Z.-XZ.Z.Z.Z.q.Z.' Z.Z.Z.q.q.Z.Z.q.Z.Z.Z.Z.oXZ.Z.-XZ.-XZ.q.oX-XZ.Z.-XZ.Z.Z.Z.9.B.:.Z.Z.V.6.9.V.V & d d ",
"d h.w 9.x._.%XV.Z.l.Z.@XV.-Xq.q.Z.-XZ.Z.Z.Z.Z.Z.q.Z.' Z.Z.-XZ.q.Z.-Xq.Z.Z.oX-XZ.Z.q.Z.oXZ.-Xq.l.Z.-XZ.Z.Z.Z.Z.Z.9.Z.L X.& 7.& & ",
"y.3.w F w X.Q.9.9.9.Z.Z.l.V.Z._ Z.Z.oX-XZ.Z.-XZ.Z.Z.' q.Z.Z.-XZ.-XoXZ.Z.q.Z.oXq.q.q.Z.Z.q.Z.Z._ Z.Z.@X-XZ.Z.-XZ.Z.V./ F | C q.s ",
";.w $ v V &.3.Z.Z._ Z.Z.Z.Z.q.Z.q.Z.Z.oXZ.-XZ.Z.' q.Z.Z.q.Z.oXZ.oXZ.q.Z.Z.Z.q.Z.Z._ Z.Z.Z.Z.l.V.l.Z.V.oXZ.-XZ.Z.:.9.V.x.V v ;.s ",
"w w s s -.6.6.Z.l.Z.Z.-XZ.q.q.Z.q.Z.q.Z.q.Z.q.q.Z.Z.q.Z.Z.q.q.Z.Z.Z.Z.q.Z.q.q.Z.q.Z.Z.-XZ.q.9.Z.9.Z.9.V.9.Z.9.9.Z.Z.9.v.+.5 5 w ",
"d & w F v -.V.-XZ.Z.q.q.Z.Z.q.Z.Z.' Z.q.Z.Z.Z.Z.oXZ.Z.Z.Z.Z.Z.q.Z.q.Z.Z.q.Z.Z.-XZ.Z.q.q.Z.Z.q.Z.Z.' Z.q.Z.Z.Z.Z.oXZ.v.6.v s & & ",
"& & 5 w X.X.N.Z.oXZ.-XZ.Z.Z.Z.Z.q.Z.Z.q.Z.' Z.Z.q.-XZ.-XZ.q.q.Z.Z.Z.q.q.Z.q.Z.Z.oXZ.-XZ.Z.Z.Z.Z.q.Z.Z.q.Z._ Z.Z.q.-XV.}.R $ $ v ",
"& & w Z.x.X.Z.9.Z.Z.Z.' Z.q.Z.-XZ.Z.q.Z.Z.q.Z.Z.q.Z.Z.Z.q.Z.Z.q.q.q.q.Z.Z.q.Z.q.Z.Z.Z.' Z.q.Z.-XZ.Z.q.Z.Z.l.Z.Z.q.Z.Z.Z.:.w & & ",
"$ d & H.V.Z.X.Z.' Z.q.' Z.q.Z.oXZ.q.-Xq.Z.Z.q.Z.Z.Z.q.Z.' Z.-XZ.q.Z.Z.oXZ.Z.q.Z.' Z.q.' Z.q.Z.oXZ.q.-Xq.V.V.l.Z.Z.V.3.l.$ s q.v ",
"& q.;.v T X.V.V.Z.Z.q.Z.Z.Z.Z.Z.q.Z.Z.Z.oX-XZ.q.Z.' q.q.Z.q.oX-XZ.-XoXZ.Z.q.Z.Z.Z.Z.q.Z.Z.Z.Z.Z.q.Z.Z.Z.oX-XZ.9.v./ &.X.B $ ;.s.",
"d h.V -.V._ V.-X-XZ.Z.Z.-XZ.Z.Z.Z.' Z.q.Z.oXZ.-XZ.' q.Z.' Z.Z.oXZ.-XZ.Z.Z.q.Z.-X-XZ.Z.Z.-XZ.Z.Z.Z.' Z.q.Z.oXV.%Xv.L L V   & & :.",
"v & V 9._ V.6.V.oX-XZ.-XZ.' q.Z.q.' q.Z.Z.Z.oXq.q.Z.Z.Z.q.Z.Z.q.Z.Z.Z.q.' Z.q.Z.oX-XZ.-XZ.' q.Z.q.' q.Z.Z.Z.oXr.3.v.$.d & d d $ ",
"d @ & B F X.&.r.Z.oXq.-Xl._ Z.q.Z.Z.q.q.Z.Z.Z.Z.Z.q.Z.Z.Z.q.q.Z.Z.' Z.Z.' q.Z.q.Z.oXq.-Xq.' Z.q.Z.Z.q.q.Z.Z.Z.Z.v.3.B.| & & & & ",
"$ & $ v v v.X.] 6.9.q.Z.Z.q.q._ Z.q.Z.Z.' q.Z.q.Z.oXZ.Z.-XZ.Z.q.q.Z.q.Z.q.Z.Z.q.q.q.q.Z.Z.q.q.' Z.q.Z.Z._ q.Z.9.V.oXX.v q.w w ; ",
"d & B & L.-Xx.&.V.6.Z.Z.Z.Z.q.q.Z.Z.Z.q.' Z.Z.Z.Z.Z.-Xq.q.Z.Z.Z.Z.q.Z.q.oX-XZ.Z.Z.q.Z.Z.Z.Z.q.q.Z.Z.Z.q._ Z.Z.Z.V.V.%X@.p s w w ",
"& X X.&.~ H. XV.%XV.V.l.Z.q.Z.Z.Z.-XZ.Z.Z.q.Z.q.Z.Z.Z.Z.Z.q.q.Z.q.' q.Z.Z.oX-XZ.-XZ.Z.q.Z.q.Z.Z.Z.-XZ.Z.Z.l.Z.l.V.Z.-.X.B $ $ w ",
"$ X v x.V.v._. XV.Z.6.Z.Z.Z.q.Z.Z.Z.-XZ.Z.Z.Z.q.Z.q.Z.q.' q.Z.Z.q.' Z.Z.Z.Z.oX-XZ.Z.q.Z.Z.Z.q.Z.Z.Z.-XZ.Z.Z.Z.9.V._ &.6.5 ; w w ",
"d & $ d V V.6.Z.l.r.V.Z.oXZ.Z.-Xq.Z.oXZ.-Xq.q.Z.q._ l.Z.Z.Z.Z.Z.Z.q.q.Z.q.Z.q.Z.Z.q.Z.Z.oXZ.Z.-Xq.Z.oXZ.-Xl.9.V.9.R 9.x.R & d d ",
"d & & B w 9.6._ Z.Z.V.Z.Z.-Xq.oXq.Z.Z.q.Z.Z.Z.oXZ.Z.9.Z.Z.*XZ.l.Z.q.Z.Z.q.Z.q.' Z.Z.Z.Z.Z.-Xq.oXq.Z.Z.q.Z.Z.Z.@XZ.Z.X.| s y.& $ ",
"& d h.& v L.V._ q.Z.Z.q.Z.Z.Z.Z.Z.q.Z.q.Z.q.Z.Z.oX-XZ.Z.-XoXZ.Z.Z.Z.-XZ.Z.-XZ.' q.Z.Z.q.Z.Z.Z.Z.Z.q.Z.q.Z.9.Z.Z.}.$X&.V y.7.d d ",
"$ d & h.V _.Z.Z.Z.oXZ.Z.Z.q.Z.q.q.Z.Z.Z.q.' Z.Z.Z.oX-XZ.oXZ.V.l.q.Z.Z.-XZ.-XZ.Z.Z.oXZ.Z.Z.q.Z.q.q.Z.Z.Z.9._ Z.Z.Z.L.^.V ;.d & $ ",
"& $ & & L &.v.9.Z.Z.-XV.V.Z.9.9.Z.Z._ Z.Z._ Z.q.Z.q.@XZ.9.Z._ Z.Z.9.Z.9.B.B.Z.l.Z.Z.-XZ.Z.Z.q.l.Z.Z.' Z.Z.] Z.9.x.w r.& & & # & ",
"N $ d d s X R V.Z.Z.@XZ.-XZ.Z.:.q.Z.Z.Z.Z.q.Z.Z.Z.Z.Z.Z.V.l.Z.Z.Z.l.Z.V.Z.:.9.Z.Z.Z.oXZ.-XZ.Z._ q.Z.Z.Z.Z.9.&.&.&.L V & d $ d d ",
"d & d 7.w s B X.Z.Z.Z.9.Z.Z.9.] Z.Z.-XZ.Z.Z.Z.Z.q.Z.Z.q.Z.Z.Z._ Z.Z.V.-XZ.Z.B.9.Z.Z.Z.q.Z.Z.l._ Z.Z.*XV.V.V.-.v w X.| & v & d X ",
"& s.y.& w w v.L Z.7.C.Z.9.Z.Z.Z.Z.q.oX-XZ.Z.-XZ.Z.q._ q.V.@XZ.V.Z.-X@XZ.Z.l.B.:.Z.q.Z.Z.q.Z.Z.Z.Z.3.Y.}.x.x.^.X.R $ X $ & 3.d & ",
"b.y.d & & & V 5 v X s V.Z.Z.Z.9.Z.q.Z.oX9.-X9.Z.q.Z._ Z.Z.Z.-XV.-XoXZ.Z.9.9.Z._ Z._ 9.Z.Z.Z.Z.9.v._ ~ H.R _.w w & d X d v & h.d ",
";.w d & d C s s R 9.v.9.Z.-XZ.C.Z.Z.q.q.Z.Z.Z.9.Z.q.Z.9.9.Z.@XZ.oXZ.Z.Z.Z.V.Z.9.V.V.Z.9.V.-XZ.Z.v.@.w 6.v.l.&.& d & & & & d y.& ",
"w $ & $ & d 7.d s & v 3.Z.}.+X&.v.-XZ.Z.Z.l.Z.V._ 9.V.V.:.Z.Z.l.V.9.Z.9.V.V.-XV.V.6.Z.Z.Z.oX%XV.@._.v V v.6.-.V # # & d X d d $ ",
"5 & d d & d ;.& h.V s v x.V.L.s @X3.Z.9.Z.Z.Z.v.V.v.V.V.B.9.Z.Z.9.V.V.V.9.V.oXV.-XZ.9.Z.V.V.E.@.H.a w 5 R | X.d & d d d & & d & ",
"& X & X & d d & $ & N $ R | & V +.C.C.v.Z.-XV.3.V.x.+Xx.Z.Z.9.Z.Z.R v.:.9.N.N.&.3.V.V._ 6.n.-.N.s B s s s y.w $ d d q.s w w ; w ",
"v v & X d & $ d d & & V B & & d w L 7.9.Z.x.Y.-X@.+XE.&.v.X.L Z.Z.v.R R &.&.~ @.@.9.V.&.-.R -.T $ X $ w w w ;.y.& 9.y.& w ;   w ",
"d $ & v & d d & $ d h.& & s d d w V X.v.3.s L  XT H.s R V.] $.+.v.] R V B 9.~ N v -._.V N V &.V $ & w w $ $ w ;.d 7.$ $ w w w $ ",
"d & 7.d & h.& h.& & :.y.v s v.& & s v R s X B +.~ & & X.-.$ | j.X.V y.& & q.d y.& 5 r.h.w v h.& & s w $ w   w w & & $ s w $ w w ",
"d y.$ & & r.q.& & $ s 7.& h.$ $ & b.s B & d d d & d # V B s.B w s q.& & d y.h.& w $ w ;.& h.& & v h.d & w w w w $ w   w w y.w $ ",
"h.:.& d $ d ;.5 & $ s & & v & X d d ;.s.N & 9.d & d X $ w w y.s A.3.d d $ & 7.& $ $ w w & d & # d & 3.h.w w y.w w w   $ w w y.w ",
"7.d & d & v & & v X d d & d & & $ & & y.& b.& d X & & d $ w ;.w ;.w & d d & 5 & w X w s d d $ & & & s ;.w y.w w   $ w w $ w ;.w ",
"& & d & v & & v & & & h.d & & v $ d & & 5 s $ $ d d & & > ; ; w w w & $ d $ $ d $ w w b.& $ $ d & & 5 w $ w $ $ w w $ w w $ $ w "
};
