/* XPM */
static char *_b390490b84441c0891a77f1bef3fc03bDY1I7q5JNg7ZgaO[] = {
/* columns rows colors chars-per-pixel */
"64 64 146 2 ",
"   c #4D2103",
".  c #53311D",
"X  c #502F21",
"o  c #543222",
"O  c #553927",
"+  c #563C2C",
"@  c #583F2F",
"#  c #706F19",
"$  c #707111",
"%  c #767E18",
"&  c #5D4C21",
"*  c #5A4333",
"=  c #5D4738",
"-  c #5D493C",
";  c #614029",
":  c #664C2E",
">  c #634632",
",  c #604E3D",
"<  c #69672C",
"1  c #797827",
"2  c #747029",
"3  c #787629",
"4  c #7A7A29",
"5  c #6C653F",
"6  c #6C683F",
"7  c #5D4C41",
"8  c #5F5144",
"9  c #5F564B",
"0  c #624E42",
"q  c #625245",
"w  c #695647",
"e  c #665C44",
"r  c #685E42",
"t  c #62564C",
"y  c #64594D",
"u  c #695B4D",
"i  c #645C52",
"p  c #695E53",
"a  c #665F58",
"s  c #705F51",
"d  c #676143",
"f  c #696143",
"g  c #6E6B41",
"h  c #737740",
"j  c #737248",
"k  c #676156",
"l  c #6A6155",
"z  c #6D6950",
"x  c #676159",
"c  c #6A645C",
"v  c #6E685E",
"b  c #716256",
"n  c #766C50",
"m  c #746659",
"M  c #70695F",
"N  c #796C5E",
"B  c #7B745A",
"V  c #6B6761",
"C  c #6D6962",
"Z  c #716B62",
"A  c #7A6C60",
"S  c #726F68",
"D  c #767165",
"F  c #7E7563",
"G  c #7E7967",
"H  c #747069",
"J  c #7B756B",
"K  c #7D7A6E",
"L  c #7F7C71",
"P  c #817965",
"I  c #837D69",
"U  c #817D73",
"Y  c #768317",
"T  c #76811D",
"R  c #7B8B18",
"E  c #7E931B",
"W  c #7D8927",
"Q  c #81961B",
"!  c #84991B",
"~  c #89AC1D",
"^  c #8CB01F",
"/  c #91B51F",
"(  c #869C23",
")  c #869933",
"_  c #8AA023",
"`  c #8EAA24",
"'  c #93AF25",
"]  c #8FB321",
"[  c #93B622",
"{  c #98B626",
"}  c #96BC20",
"|  c #98BF21",
" . c #9BBD28",
".. c #9AB337",
"X. c #9BC223",
"o. c #9EC429",
"O. c #A0C627",
"+. c #A3CB27",
"@. c #A0C52D",
"#. c #A4CD2A",
"$. c #A8CD2F",
"%. c #A7D028",
"&. c #ACD62A",
"*. c #A7CE30",
"=. c #A9CC30",
"-. c #ACD332",
";. c #AFD934",
":. c #B0D733",
">. c #B4DD35",
",. c #B7E035",
"<. c #B9E236",
"1. c #848075",
"2. c #848275",
"3. c #858275",
"4. c #858277",
"5. c #878377",
"6. c #868577",
"7. c #878577",
"8. c #868378",
"9. c #878579",
"0. c #878679",
"q. c #87857C",
"w. c #898379",
"e. c #888579",
"r. c #8B857B",
"t. c #89867B",
"y. c #8D877D",
"u. c #89887B",
"i. c #8A887B",
"p. c #8B897D",
"a. c #8B8A7E",
"s. c #8C887C",
"d. c #8C8B7F",
"f. c #898780",
"g. c #8D8D81",
"h. c #8E8C80",
"j. c #8F8D84",
"k. c #908E85",
"l. c #95948A",
"z. c #99968E",
"x. c #99978E",
"c. c #9A9990",
"v. c #9B9A92",
"b. c #9C9A92",
"n. c #9D9C94",
"m. c #9E9C94",
/* pixels */
"} / } } / X./ %.X./ ^ / X./ / X./ / / / / X./ | +./ X./ } } } / } / / X./ X./ $.X./ [ ] X.^ ^ / X.~ / / X.X./ / %./ X./ X.X./ / ",
"} } ^ / / / X./ O.X.$./ / X./ / / X.X./ / ~ X./ ^ $.X.#.} [ ^ } } } ^ [ / / ^ X.o./ %.[ X.X.X.[ / } X./ / ^ X./ [ %./ %./ / / / ",
"/ / / } X./ / / } X./ ~ X./ X.%.X./ [ / X./ X.X./ ; : : : : : : : : : : : : : & ` X.o.` } ^ ^ *.X.^ ^ X./ / } [ / X./ X.^ X.X./ ",
"/ } } @./ X./ / ~ / / ^ / / / @./ [ %.O./ X.%.X.n l.d.s.e.e.e.5.e.e.e.e.4.e.3.i.D l X.X.X.X.X.%./ ^ %.X./ X./ } / X./ / ~ X.%./ ",
"} #.@./ | / | | / X./ X.X./ / X./ / %.%.#.$.#.[ e.s.i.w.3.5.5.3.w.4.e.U 4.w.e.e.i.i.B %.o.&.o.o./ X.+.%.#.#.} [ / ~ / / X./ +.#.",
"| @.| / / / | %.&.%.X./ >.X.| X.+./ &.%.O.:.+.$.s.3.4.4.M q y u u p u p y t K w.3.9.B &.<.&.%.%.X./ &.X.} %.[ #.X.^ / X.~ ^ [ O.",
"} } } [ ^ / / / $.:.%.#.&./ / X.#.X.#.&.#.#.:.{ e.5.5.w.f J P U G K P K K K = w.2.3.B <.&.X.%.&.X.X.+.o.X.%.#.] / / X./ / X.X.` ",
"} ~ } } ~ / O./ X.-.+.>.+.X.+.+.&.&.+.#.&.#.&.O.w.4.5.e.b 1.U U 4.4.4.4.U e.> 4.4.3.B ,.%.o.&.#.&.&.#.X.@.%.X.X.X./ / X./ / / ^ ",
"/ | / / [ } X.X.| +.#.&.&.#.O.X.&.%.:.&.o.#.&.} w.e.e.e.p 4.U 4.U 4.4.4.I U = e.9.e.B &.&.%.$.o.&.#.&.&.X.X.| #.%.%./ X.#.X./ / ",
"/ / | / o.*.} %.&.#.&.&.&.&.#.#.&.&.&.%.#.&.&. .w.i.e.e.s 4.4.L U U U w.K U > s.9.y.N &.&.&.%.#.&.&.&.#.X./ #.%.X./ +.^ / / X./ ",
"/ ^ / | [ #.%.@.>.&.&.#.&.#.&.&.&.<.&.&.&.#.&.} e.s.i.e.s U 8.J D U U U L J > s.e.p.F #.&.%.&.&.&.<.&.&.&.o.&.X.+./ / X./ / / / ",
"/ ~ / | [ X.#.$.#.%.#.&.&.&.#.&.&.&.<.&.&.&.&. .y.p.s.s.b U 4.4.U K U U 1.D > d.9.s.N %.&.&.#.&.&.&.<.&.%.@.%.O.+.X.&.X.^ / X.X.",
"/ / / / / +.X.+.%.%.&.&.,.&.&.<.#.&.>.&.<.#.#.X.y.y.p.p.m b m m m b b u u u m s.i.p.N &.>.&.&.<.+.&.>.&.>.X.#.&.#.X./ O./ / X./ ",
"| / } X.] X.o.X.&.&.&.&.&.<.#.<.$.&.&.%.&.&.&.=.y.p.p.p.p.p.y.p.s.s.s.s.e.e.p.p.p.s.N &.&.<.*.>.#.&.&.+.#.&.&.:.&.O./ / X.#./ / ",
"/ | #.| / %.X.o.#.&.&.%.&.&.&.&.&.%.&.#.&.#.&.O.U j.g.p.p.s.s.y.s.s.s.s.s.s.p.p.p.j.l #.&.&.&.&.&.%.&.%.&.#.%.+.#.#.[ X.+.o.X.X.",
"/ [ | #.o.>.#.&.&.>.&.&.&.%.&.#.#.&.&.&.#.o.&.+.c J j.c.m.m.c.z.z.z.x.z.x.x.c.n.m.k * &.&.#.&.%.#.&.&.&.%.X.&.%.$.$.#./ +.X./ / ",
"| / } } @.&.&.#.&.&.<.&.&.&.%.*.&.&.o.&.&.o.&.o.p J J M c c c b m c v m l l k l l J - &.&.&.*.*.&.&.O.&.&.o.&.o.%.o.#.X.] ~ ~ [ ",
"/ / } } / | +.&.&.&.,.&.<.&.&.o.*.&.&.&.&.%.&.o.p U Z Z M M M M Z Z Z Z v c v v c v 8 &.<.&.&.o.%.&.&.&.&.%.&.&.%.&.} X.X.] / X.",
"| / X.#./ %.%.#.%.&.&.#.&.&.%.o.&.&.<.&.&.&.&.o.H v M M M M M Z Z Z M Z Z Z D c c M 8 %.&.&.%.o.&.&.<.&.&.&.&.&.#.&.o.X.X.X./ ^ ",
"| #.O.X.X./ &.@.&.#.&.&.%.&.&.&.&.%.>.<.&.&.<.o.A c v M M M M Z M v Z D Z Z Z v M Z 9 &.%.&.&.&.&.%.<.<.&.&.,.&.&.#.o.#.o.%./ X.",
"&.#./ X.+.X.+.X.&.o.#.&.&.&.&.%.-.%.&.>.%.<.%.o.M v v Z Z v Z Z Z M Z Z C Z C C M C q &.&.&.&.%.&.%.&.>.%.<.%.-.%.&.X.%.X.X.%./ ",
"@./ / X.+.%.%.#.&.-.&.#.&.<.&.&.&.&.#.%.&.&.&.%.6 k y i p p k p l k k k p p u p u p ) #.&.<.&.&.&.&.#.%.&.-.&.%.&.%.%./ ^ / +.X.",
"/ / X./ X.#.>.&.&.%.&.&.&.,.<.-.&.<.&.&.&.%.&.&.X.& 7 8 8 8 t t t t t q - 8 8 7 8 T &.&.&.>.<.&.&.<.&.&.&.%.&.&.X.X.&.X.^ X.X.] ",
"/ | O.#.X.%.>.&.<.&.%.&.&.&.>.%.<.*.&.%.&.&.&.&.&.&.< * * = = - - = = * * * * * W &.%.&.&.&.,.%.<.#.&.%.&.&.&.&.%.&.&.o./ / / / ",
"/ ~ X.| #.%.&.#.%.&.&.+.%.&.&.&.&.&.&.&.&.<.&.#.&.&.E c c x t p c l c c c c c i [ &.&.o.%.&.&.&.&.&.&.&.&.<.&.%.&.&.;.X./ ] / X.",
"| X./ ~ #.&.#.&.&.#.&.&.&.%.&.&.%.o.%.&.&.&.>.<.&.<.E V x c y a c C c c c V V i X.#.&.&.&.%.&.&.*.o.%.&.&.&.>.<.%.,.#.X.X.[ ^ / ",
"| / / | X.%.&.&.#.&.,.&.&.&.&.&.%.&.&.&.%.%.&.>.&.>.R c x x y i c c c c c V V i [ &.<.&.&.-.&.&.%.&.&.&.#.#.&.,.&.;.o.#.%.X./ / ",
"/ / #.+.+.,.&.,.&.#.>.<.&.&.<.&.&.&.&.*.&.o.&.&.&.*.Y V x x y k l c c c c x x i X.*.>.<.&.&.<.&.&.&.&.*.&.o.&.&.&.#.%.&.X./ X./ ",
"| $.} #.#.>.,.&.&.%.&.<.&.<.%.#.&.<.&.&.&.&.&.&.#.&.Y x x x y k c c c c c c V i X.o.&.>.&.<.#.%.&.<.&.&.&.&.&.&.%.&.X.o./ %./ / ",
"@.#.| | / +.:.#.#.#.&.&.%.&.&.o.&.&.>.<.&.&.<.&.&.&.E k k i t O k k k c x x x 9 X.#.&.&.%.&.&.o.&.&.,.<.&.&.<.&.&.&.o.X.+.X.&./ ",
"@.} / | O.+.+.&.&.X.&.&.&.&.%.&.%.&.&.>.&.<.&.&.o.%.] 9 i 9 y i y p a O V x c z o.o.&.&.&.&.%.&.%.&.&.>.&.<.&.&.o.#.&.%.X.X.o.X.",
"} } | | %.#.#.&.%.&.&.<.&.%.$.&.%.&.#.&.*.&.%.#.&.&.R i i i i 9 t i y k V V V a X.&.&.<.&.%.#.&.#.&.#.&.#.&.#.%.&.&.#.&.+.[ } / ",
"X.^ X.X.X.#.&.,.&.&.#.#.&.&.%.&.&.o.&.%.&.&.&.&.>.&.E i i i i i i 9 9 9 V V V a  .&.#.#.&.&.%.&.&.+.&.#.&.&.&.&.,.&.%.#.X.X.] ^ ",
"/ ^ ] } X.+.&.&.>.&.<.&.&.&.&.&.%.&.&.%.&.o.&.&.#.,.R i 9 i 9 i 9 i 9 i V C V a @.&.<.&.&.&.&.&.#.&.&.#.&.o.&.&.#.<.&.;.X.] ^ X.",
"/ / / &.%.#.&.#.&.&.&.o.&.%.&.<.&.&.%.-.&.%.&.&.%.&.R 9 9 i i 9 9 i 9 9 V V V a } &.&.O.&.%.&.<.&.&.#.&.&.&.&.&.%.&.&.&.o./ / / ",
"^ | X.*.&.&.#.&.#.&.#.#.&.#.&.>.-.%.<.%.&.&.#.&.&.&.Y 9 9 i t i i 9 9 9 V V V a ' &.#.O.&.=.&.>.&.%.<.#.&.&.%.&.&.&.o.&./ X.%.X.",
"/ %.@.X.o.+.%.&.&.&.#.&.&.&.&.&.#.&.&.&.>.<.&.%.{ ` | 7 7 7 * 7 q 7 7 7 7 t 0 h [  .} +.&.&.&.&.#.&.&.&.,.,.&.o.&.o.%.X.X./ o.*.",
"| %.X.%.&.o.&.>.<.&.&.&.<.&.&.&.&.o.&.%.&.,.&...H H - c V c 7 x a c c V c V C a = q q q [ &.&.&.&.O.&.$.&.>.&.<.&.X.X.X.^ / [ o.",
"X./ X.#.X.&.#.&.>.<.&.<.&.o.%.&.%.o.#.&.&.&.2 f.K K q c x c 7 x a x x x c a c i 0 e t e ( o.%.&.%.O.$.&.&.&.,.#.o.&.%.X.^ X.X.^ ",
"| ^ ] X.X.+.#.*.&.>.#.<.%.o.&.#.&.&.#.%.&.&.1 p.K L q c c c = x x x x x a a a y 0 e t y E o.&.#.&.&.#.%.&.&.&.&.%.o.&.+./ / / / ",
"/ / / | | &.+.X.#.#.#.&.&.%.#.o.-.#.&.&.o.%.W f.K U q c c c 7 x x a x x a a x 9 7 y u u ~ #.#.o.-.%.&.&.o.%.&.#.&.,.o.X.%./ X./ ",
"| / X./ &.<.%.%.%.#.&.&.&.&.%.#.&.&.&.%.o.&.3 f.U U , Z M c 7 x V x x c a V V 9 t u u y E &.#.%.&.&.&.%.o.&.&.&.&.&.,.%.^ X.X./ ",
"/ / +.+.o.%.;.&.,.&.&.%.&.#.&.&.&.<.&.&.&.%.4 g.2.I 4.o = = = = - - 7 @ O o o @ u u y p.E &.&.&.&.<.&.&.&.%.&.%.&.&.%.o.X./ / / ",
"/ E X.&.&.&.>.>.&.&.#.&.&.&.*.&.&.&.<.&.&.&.3 g.2.4.q J H S C S S S Z a + S S a 8 z c p.E &.*.&.&.&.<.&.&.&.&.#.&.X.%.o.X./ / X.",
"| / / X.X.&.#.&.%.#.&.&.>.&.&.<.%.&.>.&.<.%.3 g.1.1.e H C C C v c x a a - x x 9 t z Z q._ &.&.,.%.&.>.&.<.%.%.&.%.X.#.%.X.^ X.| ",
"| / / X.X.#.#.X.&.&.&.&.&.,.%.>.#.&.&.%.&.&.3 g.1.4.w S C C c c V a a a 7 x a y t l K q.E ,.%.,.%.&.-.%.&.&.&.,.&.&.o.+.X.%./ ^ ",
"/ | *./ X.-.&.o.*.&.&.*.&.&.&.&.&.%.&.%.&.%.3 k.8.9.w S v v c c V a a x = x x 9 q K K e.! &.&.&.&.#.&.%.&.#.&.&.>.,.#.X.+.%.X.X.",
"/ | ] *.X.;.&.&.&.,.&.&.&.%.&.#.#.-.&.-.%.o.3 j.3.1.w H v v v c a a a C . c x i q K K 9.E %.&.%.%.&.&.&.#.o.&.&.&.&.;.X.o.X.^ ^ ",
"/ / / / +.%.%.%.&.&.<.&.&.&.%.#.&.&.o.&.&.@.4 g.4.w.U o o o o o . . o o   X X + D L K q.Q &.%.%.&.&.o.&.&.X.&.o.&./ #./ / / ^ / ",
"X./ | | X.E X.&.&.&.>.&.<.&.&.#.%.&.&.&.&.$.4 k.4.4.2.s.I I I I G G G G G F F G L K L q._ &.&.o.#.&.&.&.&.%.%.%.%.X.X./ X./ } } ",
"X.] | +.} } X.+.&.&.&.#.&.&.#.o.&.&.<.&.&.&.1 k.3.2.4.4.3.4.2.4.1.L U K L K L L K L L q.E &.%.o.&.&.<.&.&.&.%.X.} o.+./ X./ X.~ ",
"/ #.#./ } X.%.X.&.%.&.&.#.&.&.&.&.%.>.<.&.&.W k.i.w.w.w.4.4.4.3.3.4.1.4.U U U L U U L g.E &.&.&.&.o.;.>.%.&.;.X.o./ ~ / / +.X.^ ",
"%.#.| / / / X.[ +.E X.&.&.&.&.#.&.#.&.>.#.<.# s.2.I 1.K K 1.U U 1.1.K L L L L L K K K f.Q &.&.%.&.o.o.&.X.;.} } / X.~ X./ / %.X.",
"o.X.} / | X.| | X.#.%.#.&.<.&.&.&.&.#.%.&.&.$ K v v M M C C M M C Z Z C V c x x x x x U Q <.&.&.&.o.X.o.%.%.%.[ / / / / / X.O./ ",
"[ ] / / / | +.X.X./ X.X.&.;.>.%.&.<.&.&.&.%.% j 5 6 6 f f f f f f d d e d e 5 7 7 7 - i Q >.,.&.%.;.X.X.%.%.%.X.^ ^ / X.~ X.X./ ",
"[ ] X.X./ | o.[ %.X.X.X.%.&.-.X.>.#.&.#.&.&.&.%.&.%.&.&.&.#.&.&.#.&.&.&.%.%.;.%.,.&.#.&.&.&.&.+.%. .} [ o.o.o.X./ X./ X./ ^ X./ ",
"/ ^ / } / | X.} X.E +.X.X.+.] X.#.&.&.%.&.<.&.#.&.%.>.%.&.&.#.&.&.o.&.o.#.&.&.+.O.&.&.X.%.&.%.&.| X.| | X.%./ / X.X.%.X./ X.^ / ",
"| X./ E | / / X.X.X.E X.X.] / | } X.#.#.&.%.&.<.+.>.>.#.%.+.X.&.&.&.X.X.#.%.o.+.+.#.%.%.%.X.%.X./ ~ / } } / #.+./ +.+./ X./ ~ X.",
"| / / X./ | X.E / | %.X./ | | | } X.+.%.#.X.X.>.O.%.} X.&.+.#.+.%.+.X.o.X.#.o.X.X.#.>.X.X.X.#.X./ / } } [ ] X.+./ &./ / / | / / ",
"| / +.X.] %.X.*./ / @.#.| } &./ / } X.X./ ^ X.+.O./ / +.%.^ +.=.o.X.#.[ / +.X.#./ [ #.$.} X.$./ / | } ^ } ~ / | / / / / X./ X./ ",
"| #.^ ] / +.+.] ] ] X.+./ %./ / / &.X.X.^ X.| | / | ^ X.X.$.X.} / %./ / X.$.$.^ / / X.+./ $./ [ | $.| / X.X.^ / ^ X.^ X./ &.} ^ ",
"%.+.] X./ | +.] / ] } ] / | X.E / X.O.$.X./ +.X./ X.~ / } } #.| %.+.| | ^ / %./ / / / | / X./ ~ | / +.$.^ | %.X.X.^ ~ / X./ %.} ",
"+.| ] X.} | / / | E X./ / | } / / / / $./ %./ X.~ / / | ^ } +./ #./ / X.X./ [ / X.~ / X./ X./ / / / | @.| %.} X.~ ^ X./ ^ | o.| ",
"/ ^ X./ | / / X.} | X.%.| / / X.^ X./ / / X./ / / X./ / [ [ [ X./ X./ ^ X./ ^ | / / X.%./ / / | / [ } / / / / / ^ X./ / | / / / "
};
