/* XPM */
static char *_f83834a446c42b1e4aadd0db197f62a0EgvhR5ouPPOCdP8[] = {
/* columns rows colors chars-per-pixel */
"64 64 251 2 ",
"   c #272024",
".  c #2E2F30",
"X  c #5C1817",
"o  c #790000",
"O  c #770C0E",
"+  c #761918",
"@  c #533B39",
"#  c #762F32",
"$  c #7B4B19",
"%  c #676629",
"&  c #002F59",
"*  c #183959",
"=  c #30374F",
"-  c #003A68",
";  c #1B486F",
":  c #024B7A",
">  c #2C4E6D",
",  c #4C4E51",
"<  c #585655",
"1  c #704B47",
"2  c #775E57",
"3  c #556C4F",
"4  c #676756",
"5  c #777058",
"6  c #47596E",
"7  c #526A6C",
"8  c #596679",
"9  c #696B6F",
"0  c #78786D",
"q  c #7A7676",
"w  c #860302",
"e  c #920000",
"r  c #9B0305",
"t  c #971700",
"y  c #8B1113",
"u  c #A80303",
"i  c #B40002",
"p  c #AF1705",
"a  c #8B2F0A",
"s  c #923701",
"d  c #A92802",
"f  c #B6340E",
"g  c #901925",
"h  c #8B322B",
"j  c #B12723",
"k  c #C50604",
"l  c #D80200",
"z  c #C31404",
"x  c #DC1602",
"c  c #C31914",
"v  c #E50600",
"b  c #E01900",
"n  c #D12C07",
"m  c #C63802",
"M  c #E42B00",
"N  c #EA3900",
"B  c #F03D00",
"V  c #894916",
"C  c #B14C0F",
"Z  c #B4540A",
"A  c #966714",
"S  c #877A1A",
"D  c #977514",
"F  c #A86E13",
"G  c #8F4B2E",
"H  c #BB4631",
"J  c #97652D",
"K  c #A97231",
"L  c #CC4C06",
"P  c #D84601",
"I  c #EB4600",
"U  c #F64A00",
"Y  c #F65200",
"T  c #FE5300",
"R  c #C3640D",
"E  c #833E48",
"W  c #8F4E50",
"Q  c #8B6C57",
"!  c #B36D55",
"~  c #A57B51",
"^  c #995E60",
"/  c #856B69",
"(  c #8F726C",
")  c #987867",
"_  c #997971",
"`  c #B36E69",
"'  c #CA7157",
"]  c #E57C5D",
"[  c #D87C6D",
"{  c #D27A72",
"}  c #ED7F75",
"|  c #77891B",
" . c #789235",
".. c #748B4C",
"X. c #7B866B",
"o. c #7D9468",
"O. c #7D8574",
"+. c #8F881A",
"@. c #8A971B",
"#. c #95971C",
"$. c #A68B1B",
"%. c #85A71E",
"&. c #89AC1D",
"*. c #9BA61E",
"=. c #8CB01F",
"-. c #91B51F",
";. c #94912E",
":. c #AA8331",
">. c #8BAC21",
",. c #8BA826",
"<. c #97AB23",
"1. c #8EB222",
"2. c #8FB12A",
"3. c #92B622",
"4. c #9BB726",
"5. c #96BC20",
"6. c #98BF21",
"7. c #89A939",
"8. c #9AA638",
"9. c #9AB535",
"0. c #A4B628",
"q. c #CE9438",
"w. c #9BC223",
"e. c #9EC429",
"r. c #9BC133",
"t. c #A1C626",
"y. c #AAC225",
"u. c #A3CB27",
"i. c #A0C52D",
"p. c #A4CD2A",
"a. c #A8CD2F",
"s. c #A7D028",
"d. c #ACD52A",
"f. c #A6CC32",
"g. c #ACD332",
"h. c #AED737",
"j. c #B0D733",
"k. c #B4DD35",
"l. c #B7DA3D",
"z. c #B7E035",
"x. c #B9E236",
"c. c #898742",
"v. c #8F8F46",
"b. c #9B8858",
"n. c #849756",
"m. c #B28E50",
"M. c #8AA645",
"N. c #9AAF48",
"B. c #94B446",
"V. c #8EA757",
"C. c #97A956",
"Z. c #99B45A",
"A. c #A9B04F",
"S. c #92916F",
"D. c #89857A",
"F. c #958A7D",
"G. c #AA9368",
"H. c #A88A74",
"J. c #B78474",
"K. c #B09171",
"L. c #96A666",
"P. c #9FB26E",
"I. c #99A678",
"U. c #A6B172",
"Y. c #CF9A46",
"T. c #D9A55C",
"R. c #E7AB50",
"E. c #CD8C78",
"W. c #EF897F",
"Q. c #9BC041",
"!. c #A8C748",
"~. c #ADCF4F",
"^. c #A8C564",
"/. c #0E578B",
"(. c #295A88",
"). c #325D8A",
"_. c #265F92",
"`. c #166097",
"'. c #38618C",
"]. c #2D6398",
"[. c #356696",
"{. c #366EA5",
"}. c #3973AC",
"|. c #476688",
" X c #506A8C",
".X c #59708D",
"XX c #6B7387",
"oX c #7A8490",
"OX c #888787",
"+X c #998A88",
"@X c #94928F",
"#X c #969896",
"$X c #B58F85",
"%X c #A79885",
"&X c #A59C9A",
"*X c #9BA58E",
"=X c #B0B38D",
"-X c #A7A89A",
";X c #B8A996",
":X c #9098A3",
">X c #A89FA0",
",X c #AAA9A6",
"<X c #B3AAA8",
"1X c #BAB7A5",
"2X c #ADB0B4",
"3X c #B6B7B7",
"4X c #CF978C",
"5X c #F09792",
"6X c #C7AD87",
"7X c #CDB292",
"8X c #D4B89C",
"9X c #F3A19B",
"0X c #C8B9A7",
"qX c #D6BBA8",
"wX c #C4B6B6",
"eX c #E7ABA5",
"rX c #EBB5AC",
"tX c #B3C790",
"yX c #BDC4B2",
"uX c #C9C59F",
"iX c #E9C18D",
"pX c #E9C398",
"aX c #F9CB9D",
"sX c #CBC5AD",
"dX c #DAC6B3",
"fX c #F4CEA9",
"gX c #E7C7B6",
"hX c #FAC8BB",
"jX c #EAD4BA",
"kX c #BDC0C0",
"lX c #C2C1C1",
"zX c #CBCACA",
"xX c #D5D0CB",
"cX c #D4D3D3",
"vX c #DADCD7",
"bX c #DCDCDC",
"nX c #EDD6C5",
"mX c #F7D9C9",
"MX c #EADAD7",
"NX c #F7D4D0",
"BX c #FBE4CB",
"VX c #DFE6E6",
"CX c #E3E4E4",
"ZX c #ECE7E6",
"AX c #EBECEC",
"SX c #F6E8E7",
"DX c #EEF1F0",
"FX c #F1F0F0",
"GX c #F2F2F2",
"HX c #FAF7F6",
"JX c #FCFCFC",
/* pixels */
"5.-.5.5.-.-.w.p.-.w.-.-.w.-.-.-.-.=.6.-.6.6.5.5.e.5.5.5.-.6.6.-.6.=.-.w.=.w.-.s.5.5.3.-.5.-.-.-.6.&.-.-.6.w.-.-.u.-.w.-.w.6.6.-.",
"5.5.=.-.w.-.-.w.p.-.p.-.-.w.-.w.3.5.-.-.-.&.5.5.-.p.5.p.6.1.=.6.-.6.-.=.-.-.-.w.u.6.p.-.6.6.6.-.-.6.6.-.-.=.5.w.1.s.-.u.-.-.-.-.",
"=.3.-.-.-.-.-.3.-.w.-.&.-.-.w.p.5.5.-.6.6.-.w.6.=.w.5.5.1.5.-.-.-.-.-.w.w.-.w.-.6.6.s. .6.-.-.p.-.w.-.w.-.-.5.-.-.w.-.5.-.6.6.-.",
"-.5.6.p.w.-.-.5.-.-.-.=.-.-.-.p.5.1.s.e.6.w.s.w.w.3.3.5.6.w.d.6.-.w.u.k.u.w.-.d.6.w.w.w.w.w.w.p.5.=.d.6.6.6.-.w.-.w.-.w.| 6.d.-.",
"-.a.i.5.-.-.5.5.-.w.-.t.u.w.-.w.6.-.s.s.i.g.s.e.w.&.w.-.s.w.s.h.w.g.j.d.s.u.u.s.d.p.w.d.w.d.u.e.-.w.p.s.p.i.w.=.-.&.-.-.u.-.u.p.",
"6.p.5.5.6.-.5.p.d.s.w.-.k.-.-.w.e.3.s.s.e.j.p.k.w.-.w.w.w.d.e.h.s.k.p.6.-.w.u.d.k.d.s.d.k.d.d.s.w.-.d.w.w.f.1.p.w.&.=.6.=.5.1.e.",
"5.5.5.-.&.-.-.6.a.j.s.p.d.-.-.u.p.w.u.d.s.u.j.u.u.e.d.s.e.s.s.e.p.0.0.;.;.<.4.u.k.k.d.z.d.w.p.d.w.w.u.e.w.p.p.=.-.6.w.6.=.w.w.-.",
"5.&.5.5.&.-.w.-.-.g.u.k.u.w.u.u.d.d.u.s.d.s.d.d.d.e.s.s.d.s.s.5.#.F L Y.' ! $.-.d.k.p.z.s.r.d.s.s.d.u.w.u.s.w.w.w.-.-.w.-.-.-.-.",
"-.-.-.-.3.5.w.w.w.u.p.d.d.u.u.w.d.s.d.d.t.p.d.u.d.j.s.p.k.d.4.$.K ' { 9XeX4X$XC.e.p.p.d.d.p.p.i.d.s.d.d.w.5.w.e.u.s.-.w.e.w.-.-.",
"-.-.w.=.e.f.5.p.d.p.d.d.d.d.p.p.d.j.d.s.i.d.d.d.s.d.x.u.a.4.#.R [ rXNXSXSXZXcX=XB.s.d.d.d.d.p.s.d.d.d.s.e.5.s.s.w.5.p.-.1.-.6.6.",
"-.-.-.w.3.p.s.u.x.d.d.p.d.p.d.d.d.x.d.d.d.s.d.s.s.y.y.u.w.+.K [ rXNXJXJXJXJXAX3XP.f.d.s.d.s.d.d.d.x.d.d.s.e.d.w.w.5.5.5.6.-.-.-.",
"-.&.-.6.3.w.f.s.p.d.u.d.d.d.p.d.d.d.x.d.d.d.d.e.*.$.D +.S Z [ nXSXHXHXHXJXHXZXkX=X~.s.d.d.d.s.d.d.d.x.d.s.e.s.e.u.w.u.w.&.-.6.w.",
"-.-.-.-.-.e.w.u.s.s.d.d.x.d.d.x.s.d.k.d.x.p.u.*.D C d s W [ eXSXHXHXGXGXGXGXZXzXyX^.d.d.k.d.d.x.s.d.k.d.k.w.p.d.s.w.-.w.-.3.w.5.",
"w.-.-.w.=.w.u.w.d.d.d.d.d.x.p.z.p.d.d.s.d.d.p.+.s u p d { gXSXSXHXHXGXGXGXGXAXcXyX^.d.d.d.x.s.k.s.d.d.e.s.d.d.h.d.u.-.-.6.s.-.-.",
"-.6.s.w.3.a.w.e.s.d.d.s.d.d.d.d.d.p.d.p.d.p.w.A t H ' E.eXZXHXGXDXGXFXFXGXGXZXvXyX^.s.s.d.d.d.d.d.d.d.s.d.p.s.e.p.f.-.w.p.u.6.6.",
"-.-.6.p.e.z.p.d.d.k.d.d.d.s.d.p.p.d.d.d.p.-.@.V d [ 9XNXZXFXFXFXDXDXDXFXGXGXbX3X-XZ.u.d.d.s.d.s.p.d.d.d.s.w.d.d.f.s.f.3.e.6.-.-.",
"w.-.-.6.u.s.d.p.d.d.x.d.d.d.d.s.d.d.w.y.0.$.:.! { eXMXSXHXGXDXDXAXAXZXCXMXcXlX,XI. .e.d.d.d.p.a.d.d.e.d.d.e.d.p.p.w.f.-.=.-.=.=.",
"-.-.5.5.6.5.p.d.d.d.k.d.x.d.d.e.p.s.-.+.F P E.rXNXZXZXAXDXDXAXAXAXCXcXlX>X+X( W 1 %  .u.x.d.d.t.s.d.d.d.d.d.d.d.d.d.w.w.w.1.w.6.",
"-.w.-.f.6.u.s.u.d.d.d.s.d.d.s.e.e.4.$.Z n v ] NXGXAXDXAXAXCXCXbXcXlX<X@X/ # o e t a S <.s.d.p.t.d.d.x.d.d.d.d.d.p.d.w.w.w.w.-.=.",
"w.s.u.6.6.5.d.i.d.p.d.d.s.d.g.e.3.F C N M v } NXGXDXAXAXbXzXkX,X+X_ ^ E E + w d m m L D @.u.d.d.d.s.k.x.d.d.x.d.d.p.e.p.w.s.-.5.",
"p.p.-.w.w.w.u.w.d.e.p.d.d.d.s.1.;.C c n M l { cXCXbXcXzXlX<X@X/ h w w r t d f L P I I f F *.w.u.d.s.d.k.p.x.s.d.p.d.w.s.w.w.p.-.",
"p.-.w.w.u.d.s.u.d.d.d.s.d.x.s.,.S h j j p i ` wXwX2X>X+X_ ^ W h + y d m P I Y Y Y T U I L F @.t.d.d.p.p.d.d.d.f.d.s.s.-.-.-.u.w.",
"-.-.-.-.w.p.l.s.d.s.d.d.d.z.z.>.+.G g g g r E J.&XOX/ # o e e e r d m m U T T T T T T U N p D 4.d.x.d.d.d.s.d.d.w.w.d.w.=.w.w.1.",
"-.6.u.s.e.s.k.d.x.d.s.d.d.d.k.2.;.$ g g g O g E E E E + w e u i z n M B I U U U T U U B M z Z #.g.s.d.s.d.d.d.d.d.d.d.u.-.-.-.-.",
"-.=.6.6.p.s.d.s.s.d.d.i.s.d.d.p.4.+.$ G V + O o O a a + y e u k l x M M M N B B I B B M M k Z <.e.d.d.d.d.x.d.s.d.d.h.w.5.-.-.w.",
"6.6.-.&.u.d.p.d.d.p.d.d.d.s.d.d.e.2.,.| % X + $ A J K V g r i k l l v v v b b b x x x c c r A 4.p.i.s.d.d.d.k.x.d.k.s.w.w.1.=.=.",
"6.-.-.6.w.s.d.d.s.d.x.d.d.d.d.d.p.d.u.1.| $ G J :.q.m.J V f j j j p k k k k k k k c f f C A @.y.s.d.d.d.p.p.d.x.d.h.u.p.d.6.-.-.",
"-.3.p.u.u.k.d.x.d.p.z.x.d.d.x.d.d.d.d.p.w.+.K :.Y.R.R.K A K K J G s s h h t t g h G J ;.<.4.f.d.d.d.d.p.d.p.d.d.d.e.s.d.w.-.6.6.",
"6.a.5.p.p.k.z.d.d.s.d.z.d.x.s.f.d.x.d.d.g.N.m.T.R.R.R.m.~ ~ b.Q 5 Q ) F._ Q Q W 2 4 ..2.w.x.p.s.d.x.d.d.d.d.d.d.s.d.e.w.-.s.-.-.",
"a.u.6.6.-.t.k.p.p.p.d.d.s.d.d.e.d.d.k.x.f.L.%X7X7XY.K G.F.F.OXD.@X7XqXsXqX;X%X@XD.S.V.d.p.d.d.e.d.d.x.x.d.d.x.d.d.d.e.w.w.w.s.6.",
"i.5.-.6.u.u.u.d.d.e.d.d.d.d.s.d.s.d.d.k.A.=X;XqXqXK.K.;X-XXXq OX;XdXmXmXnXdX0X@Xo.X.V.d.d.d.s.d.s.d.d.k.d.x.d.d.e.p.d.s.w.w.e.w.",
"5.5.5.5.s.u.p.d.s.d.d.x.d.s.s.d.p.d.s.d.^.uXjXaXaXqXqXdX0X4 . ( ;XgXmXmXNXmX0X0 & , o.!.d.s.s.d.p.d.p.d.p.d.p.p.d.d.s.d.w.3.1.w.",
"w.-.-.w.w.s.d.k.d.d.s.s.d.d.d.d.d.t.d.p.^.uXfXfXaXfXjXnXsX2 @ F.<XrXhXhXhXhXqX5   < 5 9.d.d.s.d.d.e.d.s.d.d.d.d.k.d.s.p.w.w.-.-.",
"-.-.1.w.w.u.d.d.k.d.x.d.d.d.d.d.s.d.d.s.!.=X0XpXfXfXfXmXgXH.( 0XsX5X5X9X9X5XE._ / Q b.h.d.d.d.d.s.d.d.p.d.e.d.d.s.x.d.k.w.1.=.w.",
"-.-.w.p.s.u.d.p.d.d.d.r.d.p.d.x.d.d.s.d.d.P.=X7XpXiXpXgXrX$X$XdXgX4X} W.W.' ` J.H.S.C.i.d.s.d.x.d.d.p.d.d.s.d.d.s.d.d.d.t.-.-.-.",
"=.w.w.p.d.d.u.d.u.d.s.t.d.s.d.k.d.s.x.s.d.d.!.Q.9.8.~ J.E.4X7XrXpX7XE.E.E.J.K.K.G.A.f.i.d.d.d.k.d.f.x.s.d.d.s.d.d.d.p.s.-.w.p.w.",
"-.p.t.w.w.p.d.d.d.d.p.d.d.d.d.d.a.d.d.d.k.x.d.r.L.S.F._ ` J.4X0X8X8X=XH.b.b.G.A.!.g.p.d.d.d.d.d.p.d.d.d.x.x.d.p.d.w.u.u.w.5.u.u.",
"6.p.w.p.d.w.d.x.x.d.d.d.x.d.d.d.d.t.d.p.d.k.!.tXsXbXcX,XOXq XX@X-X<X-XOX0 n.N.l.x.d.d.d.x.d.d.d.d.e.d.p.d.k.d.x.d.w.w.w. .6.-.u.",
"w.-.w.s.r.d.p.d.k.x.d.x.d.e.s.d.p.t.s.d.d.p.^.yXbXGXFXlX:X).: |.XX:X:XXX8 o.C.f.k.x.d.x.d.e.p.d.d.e.p.d.d.d.k.f.u.s.u.6.-.5.6.-.",
"w.=.1.w.w.u.p.f.d.k.s.x.s.e.d.s.d.d.a.s.d.1.U.zXCXFXAXcX2XXX: (.|..X.X> 8 OXI.B.p.x.s.x.s.i.d.s.d.d.p.p.d.d.d.d.s.u.d.u.-.5.-.-.",
"=.-.-.6.6.d.w.u.p.p.p.d.d.p.s.r.d.s.d.d.9.L.=XxXMXbXcXzX2XXX; (.`././.; 8 @X%XV.2.p.a.d.d.s.a.e.d.s.d.d.e.p.d.p.d.k.u.6.p.-.-.-.",
"6.-.w.-.d.x.s.s.d.p.d.d.d.d.p.s.d.d.d.t.Z.sXdXgXsX,X:X:XoX|.(._.].]._.: 8 +X%XS.C.p.d.d.d.d.s.a.d.d.d.p.e.d.d.d.d.d.k.u.w.w.5.5.",
"-.-.s.s.w.d.d.d.k.d.d.s.d.s.d.d.d.x.d.w.^.jXjX8X$X( 8 XX.X).(.{.{.}.]./.8 F.K.+XU.B.s.p.d.s.d.d.d.x.d.d.d.d.d.s.d.d.u.u.w.-.-.5.",
"-. .6.s.d.d.k.z.d.d.p.d.d.d.s.d.d.d.~.Z.=XnXBX7Xb.4 ; ).[._.).{.}.}.}.`. X( H.;X;XC.3.d.d.d.s.d.d.d.x.d.d.d.d.p.d.e.s.p.w.-.5.5.",
"w.-.-.w.w.d.u.d.d.p.d.d.k.d.d.x.d.d.~.U.uXBXBX6Xv., - /.].(.].[.}.}.].`.8 / K.7X;XL.2.s.k.d.d.x.s.d.k.d.x.d.s.d.p.w.p.d.w.1.w.w.",
"5.-.-.w.-.d.s.w.d.d.d.d.d.x.s.k.s.d.~.=XdXBXBX7Xb.< ; (.).].).(.(._.(.: 6 ) K.;X0XL.M.s.d.x.s.k.s.d.d.p.d.d.d.k.d.d.w.u.w.e.-.=.",
"-.w.g.-.w.d.d.e.p.d.d.p.d.d.d.d.d.d.~.U.uXnXjXT.b.3 > (.].).).> ; > ; - , Q H.;X;XL.N.p.d.d.d.d.d.s.d.p.d.p.d.d.k.x.s.w.p.u.5.w.",
"-.-.-.f.w.h.d.d.d.z.d.d.d.p.d.s.s.d.d.B.P.6X6XU.M...7 [.].].(.; * * * & = 1 5 H.S.N.4.d.d.p.d.s.p.k.d.d.f.e.d.d.d.d.h.w.e.6.-.=.",
"-.=.-.-.w.d.d.s.d.d.z.d.d.d.p.p.d.d.w.p.4.A.A.9.7.3 7 {. X].> 3 , = * * = @ 4 c.N.4.j.d.h.d.s.s.d.d.e.d.d.w.d.s.s.w.p.3.-.-.=.-.",
"w.-.w.w.-.=.6.d.d.d.z.d.x.h.d.w.s.d.d.d.d.t.d.d.r...> .X.X> 7 2.%., * > < 3  .u.s.d.z.d.x.d.d.e.s.d.d.d.d.u.s.s.u.w.w.-.w.-.w.5.",
"w.=.6.s.w.6.w.w.d.d.d.s.d.d.d.e.d.d.x.d.d.d.d.d.r...< 9 XX8 X.C.9.3 = @ < 3 ..B.g.d.d.p.d.d.s.e.d.d.x.d.d.d.s.w.w.w.u.-.w.-.5.&.",
"1.s.p.-.-.w.d.w.d.p.d.d.s.d.d.d.d.p.k.x.d.d.x.d.r.J 1 # 1 q @X-X*X3   X @ 4 O.S.L.M.6.d.s.d.d.d.d.u.h.k.s.d.h.w.w.=.&.1.-.u.6.-.",
"s.p.-.-.-.-.w.-.w.&.w.d.d.d.d.s.d.s.d.k.p.x.p.d.9.c.W G / >X3XlX1X+X2 @ 1 q OX#X#XS. .h.d.d.d.s.d.e.u.s.e.h.5.5.-.6.&.6.6.-.s.w.",
"u.-.w.-.w.w.6.w.w.e.s.p.d.x.d.d.d.d.p.p.d.d.d.w.8.! ` _ ,XvXCXAXbXlX&X0 q @X2X2X,X#XI.B.s.z.d.d.s.u.5.p.d.d.d.1.6.-.-.-.-.6.e.-.",
"5.-.-.=.-.6.s.w.w.-.w.w.d.j.z.p.d.x.d.d.d.p.d.w.c.` $X,X3XbXCXAXCXcX<XOXO.,X2X2X2X#XOXM.w.k.z.d.u.h.w.w.s.s.s.w.=.=.-.6.%.w.w.1.",
"2.3.w.w.-.6.w.3.s.w.w.w.s.d.g.w.k.p.d.s.d.d.d.=.n.-X,X2X2XkXkXkXlX3X2Xq 9 OX@X@XOXOXO...>.s.d.u.p.w.w.1.w.w.w.w.-.6.6.6.-.-.w.-.",
"-.&.-.&.-.6.6.=.1.3.w.-.e.u.-.w.w.d.d.s.d.x.s.| o.*X-X,X-X*X-X-X-X,X*XO.0 O.D.o.O.O.X. .,.e.s.d.w.w.6.6.5.a.6.=.6.6.s.w.5.5.-.w.",
"w.w.-.&.w.-.-.w.w.-.-.w.w.-.=.w.w.w.p.p.d.s.h.p.2.Z.V.V.V.V.n.V.V.V.n. . . ...7.7.M.7.3.5.w.s.u.=.=.=.w.5.5.e.a.-.s.e.-.5.1.&.-.",
"-.-.-.w.=.w.5.3.=.w.a.1.-.6.6.6.5.w.e.s.u.w.w.k.-.w.%.&.w.1.-.1.-.>.%.%.%.1.1.=.&.5.p.5.6.w.p.w.-.-.6.-.1.=.6.e.6.u.-.-.5.5.5.-.",
"w.-.s.-.-.a.3.a.-.-.e.p.6.6.d.-.-.w.w.e.w.&.w.e.e.1.3.w.s.1.t.a.u.w.i.3.-.p.w.p.1.3.f.a.5.w.a.=.-.6.6.-.-.=.6.-.-.-.-.w.5.-.5.5.",
"w.p.3.-.-.u.u.3.-.-.w.s.-.s.=.-.-.d.5.w.-.5.6.6.-.w.&.w.w.a.w.5.w.u.-.-.w.p.a.-.-.-.w.t.3.s.-.-.6.s.w.-.-.6.6.w.-.5.&.5.5.e.w.-.",
"p.u.-.-.-.6.t.5.-.-.-.-.-.w.-.&.6.w.e.s.w.-.s.6.-.w.=.=.6.w.p.6.a.u.w.w.=.-.p.-.-.-.-.w.-.w.-.=.6.-.u.a.w.-.p.-.-.5.&.-.5.5.s.-.",
"s.6.-.w.-.6.-.-.w.=.w.-.=.w.-.-.=.-.-.p.-.d.-.w.&.-.=.6.=.-.i.-.e.5.-.w.w.-.5.-.w.&.5.6.w.6.-.-.-.-.-.i.5.p.5.5.&.-.5.5.=.5.e.w.",
"-.-.6.-.w.-.-.w.-.-.-.p.w.-.-.w.-.w.-.-.-.5.=.-.6.w.-.-.-.3.5.5.5.5.-.-.-.=.3.5.-.-.5.s.-.-.-.-.-.-.5.w.-.5.-.-.5.6.-.-.w.1.1.5."
};
