/* XPM */
static char * pokeball_xpm[] = {
"64 64 177 2",
"  	c None",
". 	c #96BC20",
"+ 	c #90B41F",
"@ 	c #A5C92E",
"# 	c #8CB01F",
"$ 	c #98BE21",
"% 	c #91B51F",
"& 	c #99C021",
"* 	c #89AC1D",
"= 	c #A0C52D",
"- 	c #A8CD2F",
"; 	c #93B723",
"> 	c #98BF21",
", 	c #A4CD2A",
"' 	c #9CC323",
") 	c #A4CC29",
"! 	c #8FB321",
"~ 	c #9BC222",
"{ 	c #91B520",
"] 	c #92B620",
"^ 	c #9CC423",
"/ 	c #98BD25",
"( 	c #A0C827",
"_ 	c #A0C62D",
": 	c #9EC429",
"< 	c #A3CC29",
"[ 	c #96BB24",
"} 	c #9CC325",
"| 	c #A7CE30",
"1 	c #A0C727",
"2 	c #B3DA33",
"3 	c #ABD429",
"4 	c #97BC25",
"5 	c #AAD030",
"6 	c #88AB1D",
"7 	c #A9D229",
"8 	c #A3CC26",
"9 	c #A9D228",
"0 	c #A3C92E",
"a 	c #A7D028",
"b 	c #9DC426",
"c 	c #93B821",
"d 	c #A5CD27",
"e 	c #A5CE2A",
"f 	c #ACD432",
"g 	c #ACD62A",
"h 	c #A8D128",
"i 	c #ABD52A",
"j 	c #A7CB2F",
"k 	c #A9CE30",
"l 	c #AED733",
"m 	c #B6DE35",
"n 	c #B5DD34",
"o 	c #A2CA25",
"p 	c #B0D732",
"q 	c #B7E035",
"r 	c #B0D733",
"s 	c #9AC124",
"t 	c #A6CF27",
"u 	c #A2CA28",
"v 	c #B2DB34",
"w 	c #B9E236",
"x 	c #B4DB34",
"y 	c #A1C925",
"z 	c #A0C824",
"A 	c #ABD529",
"B 	c #A9D329",
"C 	c #AFD934",
"D 	c #B8E136",
"E 	c #A4CD26",
"F 	c #B3DD35",
"G 	c #9DC328",
"H 	c #9FC529",
"I 	c #9FC727",
"J 	c #9DC423",
"K 	c #A9CD2F",
"L 	c #9FC724",
"M 	c #A3CB26",
"N 	c #AFD742",
"O 	c #B2D851",
"P 	c #ADD155",
"Q 	c #B8DA68",
"R 	c #B1D84B",
"S 	c #B0D744",
"T 	c #AABC6F",
"U 	c #AFA797",
"V 	c #B09FA0",
"W 	c #EA0012",
"X 	c #DEE5D4",
"Y 	c #CFE3AA",
"Z 	c #B2D852",
"` 	c #BEDD7E",
" .	c #ACB383",
"..	c #5F5B50",
"+.	c #5A5052",
"@.	c #B0A19E",
"#.	c #C9DBAA",
"$.	c #A7CF36",
"%.	c #CEE0AF",
"&.	c #B09F9F",
"*.	c #C3DC91",
"=.	c #ADD636",
"-.	c #AFB487",
";.	c #D9E3CA",
">.	c #BCDC78",
",.	c #B3D957",
"'.	c #ADAD8C",
").	c #E6E7E3",
"!.	c #B9DB6D",
"~.	c #DAE3CC",
"{.	c #F3F3F3",
"].	c #E2E6DB",
"^.	c #C1DE86",
"/.	c #FFFFFF",
"(.	c #E7EDDE",
"_.	c #ACD62D",
":.	c #8BAE1E",
"<.	c #A6CE30",
"[.	c #AFB18B",
"}.	c #E8E8E8",
"|.	c #B5D572",
"1.	c #D1E4AF",
"2.	c #C2DE8A",
"3.	c #AFB389",
"4.	c #ADC665",
"5.	c #AFA995",
"6.	c #010003",
"7.	c #B6CC6D",
"8.	c #ADD630",
"9.	c #AEC36D",
"0.	c #B7DA66",
"a.	c #CAA722",
"b.	c #C0DD84",
"c.	c #7C9C1E",
"d.	c #B9D287",
"e.	c #7F9E1D",
"f.	c #C1DE87",
"g.	c #AEBF75",
"h.	c #C2DE89",
"i.	c #AABB71",
"j.	c #C4DB98",
"k.	c #AABD6E",
"l.	c #B0A59A",
"m.	c #ADC764",
"n.	c #C9E19D",
"o.	c #B1D84A",
"p.	c #AFB08C",
"q.	c #AEBC7A",
"r.	c #B3D46B",
"s.	c #E7E8E7",
"t.	c #B6CE6A",
"u.	c #B9D18C",
"v.	c #B0A09F",
"w.	c #ABB77B",
"x.	c #C7DD9D",
"y.	c #DDE3D3",
"z.	c #ACD533",
"A.	c #CBDFA7",
"B.	c #B2AF93",
"C.	c #ACD33D",
"D.	c #BBD688",
"E.	c #B0A49B",
"F.	c #B1AC95",
"G.	c #B1D74F",
"H.	c #B0D261",
"I.	c #ACA98E",
"J.	c #A7C750",
"K.	c #CEE0B0",
"L.	c #DAE3CB",
"M.	c #B2B48D",
"N.	c #AEAE8C",
"O.	c #AEC36B",
"P.	c #ADCB58",
"Q.	c #A6CB3E",
"R.	c #B7DF35",
"S.	c #ACD52A",
"T.	c #ADD633",
". + . . + . . @ . . # + $ % % & . * . + . . . . = . . . . . . + . + % & + & % - . . ; % > % + % & * % % > > % % , % & % ' > > + ",
". . + + . + . . = . @ . % & % > + . . + . * . . + @ . @ . + + . . . + + % % % > = . @ % > > & % % > > % % # > > % - % ) % % % % ",
"+ + + . . + . + . . . * > % > - . . ! . . ; ~ & + > . . + . . { + + ] ^ $ + ^ % . / ( * > + % @ . . % & % % > % % > % > + $ > % ",
"+ . . = . . + . * . + * % % % _ . + - : . ~ < ^ > % ; . [ } | $ + $ 1 2 ( & . 3 . ^ ^ 4 ^ & ^ @ . # 5 & > > % > % ~ % > 6 $ 7 % ",
". @ = . . + . . $ & + $ ^ > % > . . 8 9 0 5 a b & # $ c d b e f ' f f g h ( ( h 9 , b i ^ i ( b + & 8 h 0 @ > % % * + + $ % = j ",
". @ . . . + . @ k 9 & & 2 > > > ( ; 9 e ( l d m ^ . ( ^ / 9 ( f h n i i h b o p q 9 a i n i 3 a & c i b . 0 % @ > * + > 6 % % = ",
". . . + 6 . + . @ r a @ 9 / % ^ < s < i t 8 2 u ( ( 3 8 u 9 9 u g g g , b h ( t v q 9 w i b e i s 4 < ( ^ t 0 + % > > > + & & + ",
". 6 . . 6 + ' + & f u x u } y z g i < d i t i i g b t h i , , g A _ g g : , i d i m , w , : g e B i , s d h & ^ ^ + % ' % % % % ",
"+ > % % + $ & } $ u , i 9 ) ( } g e g g : , i 8 i C a 9 D g g e d g , g , i g , , , , g g e e : g , i 3 : . $ ( E ) % & j > % % ",
"% % & + = j $ , i , g g i i , , g g g e _ g 3 3 9 i D , e g g g g , g a F w g g g a g g g g e e g g g , G . d h ^ . @ + + % > > ",
"% # % & % @ 7 u q g g , g , g g g w g g g , g , i 9 7 g g e e g , 1 , g g m w g w g g a g e g g g w g i 9 : g b ' . . $ > + + % ",
"+ * % & % ' 0 - , 9 , g g g , g g g w g g g g , g , g e H e g g , _ g g g g m w g g , g g g e g g g w i t ( t I z } d / * + > ~ ",
"% % + % % ( ' ( a e g g m g g w e g F g w e e g e : e g g g g g g , , g , g , g g , g g F g g w , g n i x b , g , } % J % % > > ",
"> % > > + & ( b i g g g g w , m e g g e g g g F g g e g g w g e g , g g , g , 1 g g g g g w e F , g g 8 t i i l g y % % > K % % ",
"% & e $ % - & : e g g e g g i g g e g e g e g g F w g g w F g g g g w g g w g _ a g g e g g g g i a g , i < h ( @ @ % ~ @ u > > ",
"% % $ @ L m , g g F g g g a g , e g g g e : g g g F w g F g g e 9 g g w g w g g g F g g g e g e , g g g a b A 3 K e - % _ > % % ",
"& + . . M 9 g , g g w g g g a e g g H g g H g e g e F g e g H g g e g e g g g e g g w g g g e e g g : g g : g < , s | . + % * % ",
"% + . . $ ; u g g g F g w g g : e g g g g e g g g g g g g e N O O P Q R g H e g g g F g w g g H a g g g g e g i 9 g & & . ; > > ",
"& $ . @ . d 9 u 9 g g e g g e : g g w g g g g g e g S T U V W W W W V V X Y Z e g g g e g g e H g g w g g g g g < i b & ^ & % # ",
"> e = $ $ . i _ i , g g e g g g g e F w g g w g `  ...W W W W W W W W W W +.@.#.g e g g e g g g g e F w g g D g i , : , ( e % > ",
"- @ % ' b b y } i G , g g g g e g e g F e w $.%.&.W W W W W W W W W W W W W W &.*.H e g g g g e g e g F e w e g , i 1 h ^ > - % ",
"_ % > & ( 3 9 u g g g e g w g g g g e e g =.-.W W W W W W W W W W W W W W W W W W ;.>.e g w g g g g e e g g g e g d d % + % u > ",
"% % > % ^ , m 9 g e g g g F w g g w g g ,.'.W W W W W W W W W W W W W W W W W W W W ).!.g F w g g w g g g e g g s b 3 ^ # > $ ; ",
"% > y d b a v g w g e g g g F e w e g e ~.W W W W W W W W W W W W W W W W W W {.{.V W ].^.g F e w e g e g g g i 9 g g y % % % % ",
"% # > $ < 9 i , a g g _ e g g g g g g ` +.W W W W W W W W V V +.+.V V W W W V /./.V W +.(._.g g A A g g g w i d i i r & . % + $ ",
"> > + :.d i , g g , g g g e g g e H <.[.W W W W W W W W V +.V }.}.V +.V W W W }.}.W W W V |.g g , _ a g g g F w 9 m e b s ; # % ",
"> % % > ~ 9 g i , g w g g g g g e g 1.W W W W W W W W V +.}././././.}.+.V W W W W V {.W W 2.g g a g g g , , g n i C u u h > % % ",
"% % @ y ( m i w g , F w g g w g g g 3.W W W W W W W V V V /./././././.V V V W W W W V W W 4.w g g g g , A _ g g i < , i ^ % > > ",
"> - . , h 2 q i g a g m i w e e g w 5.W W W W V V +.+.6.}././././././.}.6.+.+.V V W W W W 7.e a g w g g g g g g , g } ( % ) % % ",
"@ u . s . ( C , , , g g a i g : g 8.@.W W +.+.6.6.6.6.6.V }././././.}.V 6.6.6.6.6.+.+.W W 9.g : g g m w g g w g g i G s y J e $ ",
"= . + & ^ d u g g : g g g g e g e 0.W +.6.6.6.+.V }.{.V V /.V {.{.V /.V V {.}.V +.6.6.6.+.a.a i a g i F g w g g _ , i h ^ & = $ ",
". . $ $ t < < g a g g w g e e g e b.6.6.6.V }.{.{.{.{.}.6.V {.}.}.{.V 6.}.{.{.{.{.}.V 6.6.c., g , g , i , g , , g g , 9 M ; ; . ",
"> % . s & t i w g g e e g g e g g d.6.V }.{.{.{.{.{.{.{.}.6.+.V V +.6.}.{.{.{.{.{.{.{.}.V e.e g g H g e g g g g F g 9 < & $ % % ",
"% % ; . ( ( 3 g F g w g g g g g e f.V }.}.{.{.{.{.{.{.{././.V V V V /.{.{.{.{.{.{.{.{.}.}.g.g g e g g e g : g g e w i v b + + & ",
"% % . g h ( g , g g g H g e g w g h.V }.}.{.{.{.{.{.{.{././././././././.{.{.{.{.{.{.{.}.}.i.g w g g e g g a g g e g g g _ . % % ",
"+ > % 5 i g ( g H g e H g e g F g j.V }.}.{.{.{.{.{.{.{.{././././././.{.{.{.{.{.{.{.{.}.}.k.g F g e w e i i a g g i u a + $ e & ",
"% e = & L ( i i g g e g g g g g e Z l.}.}.}.{.{.{.{.{.{.{.{.{.{.{.{.{.{.{.{.{.{.{.{.}.}.}.m.g g e g g g F w g , 9 G d ( ' + = j ",
"> - ^ t i : i w w g g g w g g g g H n.V }.}.{.{.{.{.{.{.{.{.{.{.{.{.{.{.{.{.{.{.{.{.}.}.@.o.g g g H g e g F i q 9 } } ^ 6 % % _ ",
"& % ^ , : i < i F w g w g H e g e H e p.}.}.}.{.{.{.{.{.{.{.{.{.{.{.{.{.{.{.{.{.{.}.}.}.q.H e g e H e g g g F 0 u 9 E > % > > + ",
"> :.% ' s ( d 0 g F e w a : g e g g e r.@.}.}.{.{.{.{.{.{.{.{.{.{.{.{.{.{.{.{.{.}.}.s.t.e H g e g g e e g g g g 9 u A y % % % % ",
"+ % + & & 9 ( 1 < , e g g e e : g e g g u.v.}.}.}.}.{.{.{.{.{.{.{.{.{.{.{.{.{.}.}.}.w.g g e e H g e g g : e g , i F ( & e . . { ",
"> % ' % f w h d i < g g g g e e g g g e H x.}.}.}.}.{.{.{.{.{.{.{.{.{.{.{.{.{.}.}.y.z.g g g e e g g g e : g g g i i q 8 [ $ . . ",
"% * ( d I 5 x i q i i a g e g g g w g g g e A.V }.}.}.}.{.{.{.{.{.{.{.{.}.}.}.}.B.C.g e g e g g g w g g g a g a i g t ( ' + + . ",
"+ * & h i 9 2 x i g < g g g e g g g w g g g g D.E.}.}.}.}.}.}.{.}.}.}.}.}.}.}.F.G.g e g g g e g g g w g g g g , i : d < ; { . . ",
"> % + > ^ i < g a 0 i g F g g w e g F g w e e g H.I.V }.}.}.}.}.}.}.}.}.}.-.J.R g e g g F g g w e g F g w a , i , b , h b % > > ",
"> % % ' . , < : g g i g g w e F e g g e g g g F g 8.K.L.p.M.p.N.3.w.O.P.Q.g e H g g g g g w e F e g g e g g g m g g ( y $ @ % + ",
"% > - % & f i : e g g e g g g g g e g e g e g g F w g g w F g g g g w g g w g H e g g e g g g g g e g e g , g g v R.d ^ @ ) > > ",
"+ > % - ^ 2 g g g F g g g e g e e g g g e H g g g F w g F g i a e g g w g w g g g F g g g e g e e g g g , : g g g f r ^ = > % + ",
"% + % % } d 9 , g g w i i g , , g g : g g : g e g e m g , g : g g , g , A A g a g g w g g g e a g g H g g 1 g , h . 0 % % % # % ",
"~ + > > $ * b i g g m g w g g _ e g g g g e g g g g g g i a g g g a g i g _ , g g g F g w g g : e g g g g , d d d } ^ % > + > > ",
"> % > ) . $ ' ( g g g , g g , 1 g g w g g g g g e g g e g g g : g g i w g g A , g g g e g g a : g g D i i i t & . ( y % & % > * ",
"% j @ % . . 9 } g ) S.g , g g g g e F w g g w g g e : e i m g i g w m g g a A _ g e g g e g g g g u T.v h h r ( b + * + % u > % ",
"7 @ > % % % ^ ; & * $ i g g g , g e g F , w , g e g : g g g w i w F g g , , g : g : , g g g g , 9 : I 5 b 2 . . % > * > & % - > ",
"= . > % > J $ $ b , 9 , g w g S.g g e e g g g , g e g , , g m g F g g g g i g , i i g , i w g g 9 8 . < 9 a d % > % % % % > @ % ",
". + % + % > ) > $ % & u g v n d 9 w g g g a g i : , i i _ g g a i , g , i i w i i < g g g F q i 8 2 & ^ 9 < t ^ # # % > * > > + ",
"; % > > % > = % - ^ $ & h i f $ m u g , g g g 9 i 9 i i A , g g , i i i , i F i w g , g i i l 8 5 4 . ; b y ( > % > > > % % > % ",
"% * % * % > > % + % ~ + b y % ^ M S.S.9 g w i u i h n h g g , g g b 9 _ , 3 3 d u i i : < B t 3 $ ' $ $ $ @ . + > > e $ . . { . ",
"& & % * > % + > > % % ^ ' % % > . } ) , g h T.w 8 n l d 9 ( } g g 9 b b d d I 8 8 , i d t b t L + * + . . . = @ % , @ % . { 6 . ",
"> + % & % > > % + > - % % $ > > . ^ ( 9 u $ } x L 5 $ b i 1 E M 9 1 b ^ ' , I ~ & t 2 ^ ~ ^ d ^ + % . . + + . = > ) + + . . . + ",
"> % ) > % - % - % % _ @ & $ 9 % % $ & b $ * ' M I % % ( t + y K ( ^ @ % % e > @ % ; 0 - . & - % % $ . + . 6 . . % % + $ . + . . ",
"> @ + % % 0 e % % + $ ) % - + + % 7 $ ' % > > > % > # ^ ' j ' . $ e % % > @ - % . + . = % - % % & - > % . . . . + . 6 . . @ . + ",
"- _ % > + > = ; % + $ % % & % * > > = j ~ % , > % > * + . . @ $ | u > > + % ) % + + . . % > % # > % u - . . @ . . . 6 + . . @ . ",
") > % > % & % % & * > > % > % % + % % @ % 7 % > * % % > + . = . = . % > > % ; % . * . $ > > + % % % $ = . @ . . 6 + . . + . = . ",
"% % > % & % % & % % % - > % % & + > % % ; $ + + > > % % ] { { . . . % + > + + > + . . 7 % + + > % % ; . + . + + . . + . . + + . "};
